<?xml version="1.0" encoding="UTF-8"?><svg xmlns="http://www.w3.org/2000/svg" viewBox="0 0 500 500"><defs><style>.cls-1{fill:#fff;}.cls-2{fill:#c4cfda;}.cls-3{fill:#011e41;}.cls-4{fill:#f15d41;}</style></defs><g id="background"><rect class="cls-3" x="0" y="0" width="500" height="500"/></g><g id="logo_files"><g><polygon class="cls-2" points="304.46 314.56 200.92 314.56 200.92 262.3 195.02 262.3 195.02 320.47 310.37 320.47 310.37 262.3 304.46 262.3 304.46 314.56"/><path class="cls-1" d="M288.73,275.21c-.37-.58-2.75-4.34-3.09-4.88,1.58-.73,2.57-2.11,2.57-3.82,0-2.81-2.04-4.27-5.08-4.27h-5.1v12.97h2.68v-4.43c.71,.1,1.44,.12,2.14,.12h.22c.31,.57,1.71,2.88,2.5,4.31h3.16Zm-6.03-6.56c-.67,0-1.34-.02-2-.12v-4.01h2.26c1.44,0,2.47,.75,2.47,2.04s-.91,2.09-2.73,2.09Z"/><path class="cls-1" d="M218.43,275.02l-5.38-12.76h-1.9l-1.58,3.72-3.84,9.05h2.73l.99-2.51h5.21l1,2.51h2.77Zm-8.16-4.63l1.8-4.52,1.78,4.52h-3.57Z"/><path class="cls-1" d="M231.73,268.62c0-3.83-2.77-6.38-6.98-6.38h-4.67v12.78h4.67c4.21,0,6.98-2.57,6.98-6.4Zm-7.14,4.13h-1.88v-8.24h1.88c2.89,0,4.47,1.68,4.47,4.15s-1.58,4.09-4.47,4.09Z"/><polygon class="cls-1" points="241.84 262.24 239.41 268.6 238.55 271.27 237.65 268.58 235.14 262.24 232.17 262.24 237.6 275.02 239.31 275.02 244.72 262.24 241.84 262.24"/><rect class="cls-1" x="246.37" y="262.24" width="2.63" height="12.78"/><path class="cls-1" d="M260.93,271.21c0-2.19-1.25-3.25-4.25-4.01-1.93-.48-2.57-.78-2.57-1.63,0-.9,.86-1.36,2.27-1.36s2.65,.34,3.79,1.04l-.24-2.49c-.82-.44-2.11-.74-3.55-.74-2.95,0-4.89,1.47-4.89,3.85,0,1.99,1.38,3.17,4.05,3.75,2.07,.48,2.83,.94,2.83,1.85,0,1.06-.98,1.58-2.69,1.58-1.5,0-3.07-.52-4.25-1.38l.24,2.67c1.2,.58,2.61,.9,4.15,.9,2.99,0,5.1-1.52,5.1-4.03Z"/><path class="cls-1" d="M275.85,268.64c0-3.79-2.79-6.62-6.66-6.62s-6.74,2.91-6.74,6.62,2.81,6.6,6.74,6.6,6.66-2.83,6.66-6.6Zm-6.66,4.23c-2.35,0-4.09-1.78-4.09-4.23s1.73-4.25,4.09-4.25,4.01,1.78,4.01,4.25-1.72,4.23-4.01,4.23Z"/><path class="cls-1" d="M295.11,264.21c1.48,0,2.65,.34,3.79,1.04l-.24-2.49c-.82-.44-2.11-.74-3.55-.74-2.95,0-4.89,1.47-4.89,3.85,0,1.99,1.37,3.17,4.05,3.75,2.07,.48,2.83,.94,2.83,1.85,0,1.06-.98,1.58-2.69,1.58-1.5,0-3.07-.52-4.25-1.38l.24,2.67c1.19,.58,2.61,.9,4.15,.9,2.99,0,5.1-1.52,5.1-4.03,0-2.19-1.25-3.25-4.25-4.01-1.93-.48-2.57-.78-2.57-1.63,0-.9,.86-1.36,2.27-1.36Z"/><rect class="cls-1" x="206.33" y="301.21" width="1.34" height="6.53"/><polygon class="cls-1" points="213.95 305.57 210.86 301.21 209.5 301.21 209.5 307.75 210.8 307.75 210.8 303.25 214.05 307.82 215.27 307.82 215.27 301.21 213.95 301.21 213.95 305.57"/><polygon class="cls-1" points="220 307.75 222.77 301.21 221.3 301.21 220.06 304.46 219.61 305.83 219.15 304.45 217.87 301.21 216.35 301.21 219.12 307.75 220 307.75"/><path class="cls-1" d="M231.75,306.74c-.77,0-1.57-.27-2.18-.7l.12,1.36c.62,.3,1.34,.46,2.12,.46,1.53,0,2.61-.77,2.61-2.06,0-1.12-.64-1.66-2.17-2.05-.98-.24-1.31-.39-1.31-.83,0-.47,.44-.69,1.16-.69s1.36,.17,1.94,.53l-.12-1.28c-.41-.22-1.08-.38-1.82-.38-1.51,0-2.5,.76-2.5,1.97,0,1.02,.71,1.62,2.07,1.92,1.06,.24,1.45,.48,1.45,.95,0,.54-.5,.8-1.37,.8Z"/><polygon class="cls-1" points="238.62 307.75 238.62 302.41 240.66 302.41 240.74 301.21 235.14 301.21 235.06 302.41 237.25 302.41 237.25 307.75 238.62 307.75"/><polygon class="cls-1" points="243.19 303.23 244.94 307.05 245.83 307.05 247.55 303.4 247.67 307.75 248.99 307.75 248.84 301.21 247.39 301.21 245.44 305.4 243.51 301.21 241.97 301.21 241.81 307.75 243.11 307.75 243.19 303.23"/><polygon class="cls-1" points="258.07 303.25 261.32 307.82 262.54 307.82 262.54 301.21 261.22 301.21 261.22 305.57 258.12 301.21 256.76 301.21 256.76 307.75 258.07 307.75 258.07 303.25"/><polygon class="cls-1" points="267.25 307.75 267.25 302.41 269.3 302.41 269.38 301.21 263.78 301.21 263.7 302.41 265.89 302.41 265.89 307.75 267.25 307.75"/><path class="cls-1" d="M277.73,305.84c0-.78-.38-1.34-1.01-1.59,.47-.26,.72-.73,.72-1.35,0-1.05-.79-1.68-2.13-1.68h-2.61v6.53h2.41c1.8,0,2.61-.6,2.61-1.91Zm-3.68-3.54h1.04c.67,0,1.02,.28,1.02,.81s-.35,.81-1.02,.81h-1.04v-1.62Zm0,2.64h1.24c.73,0,1.1,.3,1.1,.85s-.37,.87-1.1,.87h-1.24v-1.72Z"/><path class="cls-1" d="M281.12,301.22l-2.77,6.52h1.4l.51-1.28h2.66l.51,1.28h1.42l-2.76-6.52h-.97Zm-.45,4.16l.92-2.31,.91,2.31h-1.82Z"/><polygon class="cls-1" points="287.25 303.25 290.5 307.82 291.71 307.82 291.71 301.21 290.4 301.21 290.4 305.57 287.3 301.21 285.94 301.21 285.94 307.75 287.25 307.75 287.25 303.25"/><polygon class="cls-1" points="293.53 301.21 293.53 307.75 294.88 307.75 294.88 304.61 297.33 307.75 299.06 307.75 296.4 304.34 298.95 301.21 297.39 301.21 294.88 304.28 294.88 301.21 293.53 301.21"/><polygon class="cls-1" points="255.15 302.37 255.15 301.21 250.73 301.21 250.73 307.75 255.15 307.75 255.15 306.59 252.08 306.59 252.08 304.97 254.63 304.97 254.63 303.82 252.08 303.82 252.08 302.37 255.15 302.37"/><polygon class="cls-1" points="228.26 302.37 228.26 301.21 223.84 301.21 223.84 307.75 228.26 307.75 228.26 306.59 225.19 306.59 225.19 304.97 227.73 304.97 227.73 303.82 225.19 303.82 225.19 302.37 228.26 302.37"/><polygon class="cls-2" points="200.92 185.44 304.46 185.44 304.46 222.36 310.37 222.36 310.37 179.53 195.02 179.53 195.02 222.36 200.92 222.36 200.92 185.44"/><g><g><polygon class="cls-4" points="178.12 248 176.76 251.41 181.57 251.41 180.2 248 178.12 248"/><polygon class="cls-1" points="189.91 252.81 185.21 252.81 179.15 237.36 173.06 252.81 168.42 252.81 177 231.23 181.4 231.23 189.91 252.81"/></g><g><path class="cls-1" d="M318.41,231.21h4.38l-7.29,21.62h-3.41l-5.36-15.89-5.23,15.89h-3.37l-7.32-21.62h4.72l4.42,15.08,4.77-15.08h4.13l5.03,14.98,4.52-14.98Z"/><g><path class="cls-1" d="M245.45,238.34c0-4.68-3.4-7.11-8.45-7.11h-8.49v21.58h4.45v-7.37c1.18,.17,2.39,.2,3.57,.2h.37c.52,.95,2.84,4.8,4.17,7.17h5.26c-.61-.97-4.57-7.22-5.15-8.11,2.62-1.22,4.27-3.5,4.27-6.36Zm-9.16,3.56c-1.11,0-2.22-.03-3.33-.2v-6.67h3.77c2.39,0,4.11,1.25,4.11,3.4s-1.52,3.47-4.55,3.47Z"/><polygon class="cls-1" points="166.74 231.23 162.23 246.18 157.08 231.23 153.28 231.23 148.33 246.28 143.92 231.23 139.21 231.23 146.51 252.81 149.88 252.81 155.1 237.22 160.45 252.81 163.85 252.81 171.12 231.23 166.74 231.23"/><polygon class="cls-1" points="195.19 252.81 199.7 252.81 199.7 235.17 206.44 235.17 208.27 231.23 188.23 231.23 186.39 235.17 195.19 235.17 195.19 252.81"/><polygon class="cls-1" points="260.2 252.81 260.2 235.17 266.93 235.17 268.76 231.23 248.72 231.23 246.88 235.17 255.69 235.17 255.69 252.81 260.2 252.81"/><path class="cls-1" d="M279.58,230.86c-6.63,0-11.38,4.91-11.38,11.18s4.75,11.14,11.38,11.14,11.25-4.78,11.25-11.14-4.71-11.18-11.25-11.18Zm0,18.31c-3.97,0-6.9-3-6.9-7.14s2.93-7.17,6.9-7.17,6.77,2.99,6.77,7.17-2.89,7.14-6.77,7.14Z"/><path class="cls-1" d="M355.64,244.7c2.62-1.22,4.27-3.5,4.27-6.36,0-4.68-3.4-7.11-8.45-7.11h-8.49v21.58h4.45v-7.37c1.18,.17,2.39,.2,3.57,.2h.37c.52,.95,2.85,4.8,4.17,7.17h5.26c-.62-.97-4.57-7.22-5.15-8.11Zm-4.88-2.8c-1.11,0-2.23-.03-3.34-.2v-6.67h3.77c2.39,0,4.11,1.25,4.11,3.4s-1.52,3.47-4.54,3.47Z"/><polygon class="cls-1" points="225.69 235.04 225.69 231.23 211.09 231.23 211.09 252.81 225.69 252.81 225.69 248.97 215.54 248.97 215.54 243.62 219.18 243.62 221.91 239.85 215.54 239.85 215.54 235.04 225.69 235.04"/><polygon class="cls-1" points="325.56 252.81 340.15 252.81 340.15 248.97 330.01 248.97 330.01 243.62 333.65 243.62 336.38 239.85 330.01 239.85 330.01 235.04 340.15 235.04 340.15 231.23 325.56 231.23 325.56 252.81"/></g></g></g></g></g></svg>