<?xml version="1.0" encoding="UTF-8"?><svg id="logo_files" xmlns="http://www.w3.org/2000/svg" viewBox="0 0 252.62 171.19"><defs><style>.cls-1{fill:#c4cfda;}</style></defs><polygon class="cls-1" points="180.77 150.28 77.23 150.28 77.23 98.02 71.33 98.02 71.33 156.19 186.68 156.19 186.68 98.02 180.77 98.02 180.77 150.28"/><path class="cls-1" d="M165.04,110.93c-.37-.58-2.75-4.34-3.09-4.88,1.58-.73,2.57-2.11,2.57-3.82,0-2.81-2.04-4.27-5.08-4.27h-5.1v12.97h2.68v-4.43c.71,.1,1.44,.12,2.14,.12h.22c.31,.57,1.71,2.88,2.5,4.31h3.16Zm-6.03-6.56c-.67,0-1.34-.02-2-.12v-4.01h2.26c1.44,0,2.47,.75,2.47,2.04s-.91,2.09-2.73,2.09Z"/><path class="cls-1" d="M94.74,110.74l-5.38-12.76h-1.9l-1.58,3.72-3.84,9.05h2.73l.99-2.51h5.21l1,2.51h2.77Zm-8.16-4.63l1.8-4.52,1.78,4.52h-3.57Z"/><path class="cls-1" d="M108.04,104.34c0-3.83-2.77-6.38-6.98-6.38h-4.67v12.78h4.67c4.21,0,6.98-2.57,6.98-6.4Zm-7.14,4.13h-1.88v-8.24h1.88c2.89,0,4.47,1.68,4.47,4.15s-1.58,4.09-4.47,4.09Z"/><polygon class="cls-1" points="118.15 97.96 115.72 104.32 114.86 106.99 113.96 104.3 111.45 97.96 108.48 97.96 113.91 110.74 115.62 110.74 121.02 97.96 118.15 97.96"/><rect class="cls-1" x="122.68" y="97.96" width="2.63" height="12.78"/><path class="cls-1" d="M137.24,106.93c0-2.19-1.25-3.25-4.25-4.01-1.93-.48-2.57-.78-2.57-1.63,0-.9,.86-1.36,2.27-1.36s2.65,.34,3.79,1.04l-.24-2.49c-.82-.44-2.11-.74-3.55-.74-2.95,0-4.89,1.47-4.89,3.85,0,1.99,1.38,3.17,4.05,3.75,2.07,.48,2.83,.94,2.83,1.85,0,1.06-.98,1.58-2.69,1.58-1.5,0-3.07-.52-4.25-1.38l.24,2.67c1.2,.58,2.61,.9,4.15,.9,2.99,0,5.1-1.52,5.1-4.03Z"/><path class="cls-1" d="M152.16,104.36c0-3.79-2.79-6.62-6.66-6.62s-6.74,2.91-6.74,6.62,2.81,6.6,6.74,6.6,6.66-2.83,6.66-6.6Zm-6.66,4.23c-2.35,0-4.09-1.78-4.09-4.23s1.73-4.25,4.09-4.25,4.01,1.78,4.01,4.25-1.72,4.23-4.01,4.23Z"/><path class="cls-1" d="M171.42,99.93c1.48,0,2.65,.34,3.79,1.04l-.24-2.49c-.82-.44-2.11-.74-3.55-.74-2.95,0-4.89,1.47-4.89,3.85,0,1.99,1.37,3.17,4.05,3.75,2.07,.48,2.83,.94,2.83,1.85,0,1.06-.98,1.58-2.69,1.58-1.5,0-3.07-.52-4.25-1.38l.24,2.67c1.19,.58,2.61,.9,4.15,.9,2.99,0,5.1-1.52,5.1-4.03,0-2.19-1.25-3.25-4.25-4.01-1.93-.48-2.57-.78-2.57-1.63,0-.9,.86-1.36,2.27-1.36Z"/><rect class="cls-1" x="82.64" y="136.93" width="1.34" height="6.53"/><polygon class="cls-1" points="90.26 141.29 87.16 136.93 85.81 136.93 85.81 143.47 87.11 143.47 87.11 138.97 90.36 143.54 91.58 143.54 91.58 136.93 90.26 136.93 90.26 141.29"/><polygon class="cls-1" points="96.31 143.47 99.08 136.93 97.61 136.93 96.36 140.18 95.92 141.55 95.46 140.17 94.18 136.93 92.66 136.93 95.43 143.47 96.31 143.47"/><path class="cls-1" d="M108.06,142.46c-.77,0-1.57-.27-2.18-.7l.12,1.36c.62,.3,1.34,.46,2.12,.46,1.53,0,2.61-.77,2.61-2.06,0-1.12-.64-1.66-2.17-2.05-.98-.24-1.31-.39-1.31-.83,0-.47,.44-.69,1.16-.69s1.36,.17,1.94,.53l-.12-1.28c-.41-.22-1.08-.38-1.82-.38-1.51,0-2.5,.76-2.5,1.97,0,1.02,.71,1.62,2.07,1.92,1.06,.24,1.45,.48,1.45,.95,0,.54-.5,.8-1.37,.8Z"/><polygon class="cls-1" points="114.93 143.47 114.93 138.13 116.97 138.13 117.05 136.93 111.45 136.93 111.37 138.13 113.56 138.13 113.56 143.47 114.93 143.47"/><polygon class="cls-1" points="119.5 138.95 121.25 142.77 122.14 142.77 123.86 139.11 123.98 143.47 125.3 143.47 125.14 136.93 123.69 136.93 121.75 141.11 119.82 136.93 118.28 136.93 118.12 143.47 119.42 143.47 119.5 138.95"/><polygon class="cls-1" points="134.38 138.97 137.63 143.54 138.84 143.54 138.84 136.93 137.53 136.93 137.53 141.29 134.43 136.93 133.07 136.93 133.07 143.47 134.38 143.47 134.38 138.97"/><polygon class="cls-1" points="143.56 143.47 143.56 138.13 145.61 138.13 145.69 136.93 140.09 136.93 140 138.13 142.2 138.13 142.2 143.47 143.56 143.47"/><path class="cls-1" d="M154.04,141.56c0-.78-.38-1.34-1.01-1.59,.47-.26,.72-.73,.72-1.35,0-1.05-.79-1.68-2.13-1.68h-2.61v6.53h2.41c1.8,0,2.61-.6,2.61-1.91Zm-3.68-3.54h1.04c.67,0,1.02,.28,1.02,.81s-.35,.81-1.02,.81h-1.04v-1.62Zm0,2.64h1.24c.73,0,1.1,.3,1.1,.85s-.37,.87-1.1,.87h-1.24v-1.72Z"/><path class="cls-1" d="M157.43,136.94l-2.77,6.52h1.4l.51-1.28h2.66l.51,1.28h1.42l-2.76-6.52h-.97Zm-.45,4.16l.92-2.31,.91,2.31h-1.82Z"/><polygon class="cls-1" points="163.56 138.97 166.81 143.54 168.02 143.54 168.02 136.93 166.71 136.93 166.71 141.29 163.61 136.93 162.25 136.93 162.25 143.47 163.56 143.47 163.56 138.97"/><polygon class="cls-1" points="169.84 136.93 169.84 143.47 171.19 143.47 171.19 140.33 173.64 143.47 175.37 143.47 172.7 140.05 175.26 136.93 173.7 136.93 171.19 140 171.19 136.93 169.84 136.93"/><polygon class="cls-1" points="131.46 138.08 131.46 136.93 127.04 136.93 127.04 143.47 131.46 143.47 131.46 142.31 128.39 142.31 128.39 140.69 130.94 140.69 130.94 139.54 128.39 139.54 128.39 138.08 131.46 138.08"/><polygon class="cls-1" points="104.57 138.08 104.57 136.93 100.15 136.93 100.15 143.47 104.57 143.47 104.57 142.31 101.5 142.31 101.5 140.69 104.04 140.69 104.04 139.54 101.5 139.54 101.5 138.08 104.57 138.08"/><polygon class="cls-1" points="77.23 21.16 180.77 21.16 180.77 58.07 186.68 58.07 186.68 15.25 71.32 15.25 71.32 58.07 77.23 58.07 77.23 21.16"/><g><g><polygon class="cls-1" points="54.43 83.72 53.07 87.13 57.88 87.13 56.51 83.72 54.43 83.72"/><polygon class="cls-1" points="66.22 88.53 61.52 88.53 55.46 73.08 49.37 88.53 44.73 88.53 53.31 66.95 57.71 66.95 66.22 88.53"/></g><g><path class="cls-1" d="M194.72,66.93h4.38l-7.29,21.62h-3.41l-5.36-15.89-5.23,15.89h-3.37l-7.32-21.62h4.72l4.42,15.08,4.77-15.08h4.13l5.03,14.98,4.52-14.98Z"/><g><path class="cls-1" d="M121.76,74.06c0-4.68-3.4-7.11-8.45-7.11h-8.49v21.58h4.45v-7.37c1.18,.17,2.39,.2,3.57,.2h.37c.52,.95,2.84,4.8,4.17,7.17h5.26c-.61-.97-4.57-7.22-5.15-8.11,2.62-1.22,4.27-3.5,4.27-6.36Zm-9.16,3.56c-1.11,0-2.22-.03-3.33-.2v-6.67h3.77c2.39,0,4.11,1.25,4.11,3.4s-1.52,3.47-4.55,3.47Z"/><polygon class="cls-1" points="43.05 66.95 38.54 81.9 33.39 66.95 29.59 66.95 24.64 82 20.23 66.95 15.52 66.95 22.82 88.53 26.19 88.53 31.4 72.94 36.76 88.53 40.16 88.53 47.43 66.95 43.05 66.95"/><polygon class="cls-1" points="71.5 88.53 76.01 88.53 76.01 70.89 82.74 70.89 84.58 66.95 64.53 66.95 62.7 70.89 71.5 70.89 71.5 88.53"/><polygon class="cls-1" points="136.5 88.53 136.5 70.89 143.24 70.89 145.07 66.95 125.03 66.95 123.19 70.89 131.99 70.89 131.99 88.53 136.5 88.53"/><path class="cls-1" d="M155.89,66.58c-6.63,0-11.38,4.91-11.38,11.18s4.75,11.14,11.38,11.14,11.25-4.78,11.25-11.14-4.71-11.18-11.25-11.18Zm0,18.31c-3.97,0-6.9-3-6.9-7.14s2.93-7.17,6.9-7.17,6.77,2.99,6.77,7.17-2.89,7.14-6.77,7.14Z"/><path class="cls-1" d="M231.95,80.42c2.62-1.22,4.27-3.5,4.27-6.36,0-4.68-3.4-7.11-8.45-7.11h-8.49v21.58h4.45v-7.37c1.18,.17,2.39,.2,3.57,.2h.37c.52,.95,2.85,4.8,4.17,7.17h5.26c-.62-.97-4.57-7.22-5.15-8.11Zm-4.88-2.8c-1.11,0-2.23-.03-3.34-.2v-6.67h3.77c2.39,0,4.11,1.25,4.11,3.4s-1.52,3.47-4.54,3.47Z"/><polygon class="cls-1" points="101.99 70.75 101.99 66.95 87.4 66.95 87.4 88.53 101.99 88.53 101.99 84.69 91.85 84.69 91.85 79.34 95.49 79.34 98.22 75.57 91.85 75.57 91.85 70.75 101.99 70.75"/><polygon class="cls-1" points="201.87 88.53 216.46 88.53 216.46 84.69 206.32 84.69 206.32 79.34 209.96 79.34 212.69 75.57 206.32 75.57 206.32 70.75 216.46 70.75 216.46 66.95 201.87 66.95 201.87 88.53"/></g></g></g></svg>