<?xml version="1.0" encoding="UTF-8"?><svg id="logo_files" xmlns="http://www.w3.org/2000/svg" viewBox="0 0 261.62 83.77"><defs><style>.cls-1{fill:#011e41;}</style></defs><path class="cls-1" d="M16.84,17.31v50.41h8.65v-4.47h-4.18V21.78H240.49V63.25H119.29v4.47h125.68V17.31H16.84Z"/><g><path class="cls-1" d="M101.43,63.4c1.39-.64,2.26-1.86,2.26-3.37,0-2.48-1.8-3.76-4.48-3.76h-4.5v11.43h2.36v-3.91c.62,.09,1.27,.11,1.89,.11h.2c.28,.5,1.51,2.54,2.21,3.8h2.79c-.33-.51-2.42-3.82-2.73-4.3Zm-2.59-1.48c-.59,0-1.18-.02-1.77-.11v-3.53h2c1.27,0,2.18,.66,2.18,1.8s-.8,1.84-2.41,1.84Z"/><g><path class="cls-1" d="M39.74,67.53l-.88-2.22h-4.59l-.88,2.22h-2.41l4.78-11.25h1.67l4.75,11.25h-2.44Zm-4.75-4.08h3.15l-1.56-3.99-1.58,3.99Z"/><path class="cls-1" d="M47.76,56.26c3.71,0,6.15,2.25,6.15,5.63s-2.44,5.64-6.15,5.64h-4.11v-11.27h4.11Zm-.14,9.26c2.55,0,3.94-1.46,3.94-3.6s-1.39-3.66-3.94-3.66h-1.65v7.26h1.65Z"/><path class="cls-1" d="M62.83,56.26h2.53l-4.76,11.27h-1.51l-4.78-11.27h2.62l2.22,5.59,.79,2.37,.76-2.36,2.14-5.61Z"/><path class="cls-1" d="M66.82,67.53v-11.27h2.32v11.27h-2.32Z"/><path class="cls-1" d="M71.49,66.93l-.21-2.36c1.04,.76,2.43,1.21,3.74,1.21,1.51,0,2.37-.46,2.37-1.39,0-.81-.67-1.21-2.5-1.63-2.36-.51-3.57-1.55-3.57-3.3,0-2.09,1.71-3.39,4.31-3.39,1.27,0,2.41,.26,3.13,.65l.21,2.2c-1-.62-2.04-.91-3.34-.91s-2,.4-2,1.2,.56,1.02,2.27,1.44c2.64,.67,3.74,1.6,3.74,3.53,0,2.22-1.86,3.55-4.5,3.55-1.35,0-2.6-.28-3.66-.79Z"/><path class="cls-1" d="M80.99,61.9c0-3.27,2.48-5.84,5.94-5.84s5.87,2.5,5.87,5.84-2.46,5.82-5.87,5.82-5.94-2.55-5.94-5.82Zm9.48,0c0-2.18-1.51-3.74-3.53-3.74s-3.6,1.58-3.6,3.74,1.53,3.73,3.6,3.73,3.53-1.55,3.53-3.73Z"/><path class="cls-1" d="M105.63,66.93l-.21-2.36c1.04,.76,2.43,1.21,3.74,1.21,1.51,0,2.37-.46,2.37-1.39,0-.81-.67-1.21-2.5-1.63-2.36-.51-3.57-1.55-3.57-3.3,0-2.09,1.71-3.39,4.31-3.39,1.27,0,2.41,.26,3.13,.65l.21,2.2c-1-.62-2.04-.91-3.34-.91s-2,.4-2,1.2,.56,1.02,2.27,1.44c2.64,.67,3.74,1.6,3.74,3.53,0,2.22-1.86,3.55-4.5,3.55-1.35,0-2.6-.28-3.66-.79Z"/></g></g><g><g><polygon class="cls-1" points="65.42 45.33 64.18 48.43 68.55 48.43 67.31 45.33 65.42 45.33"/><polygon class="cls-1" points="76.11 49.69 71.85 49.69 66.35 35.67 60.82 49.69 56.61 49.69 64.4 30.11 68.4 30.11 76.11 49.69"/></g><g><path class="cls-1" d="M192.73,30.1h3.98l-6.61,19.62h-3.09l-4.87-14.42-4.74,14.42h-3.06l-6.64-19.62h4.29l4.01,13.68,4.33-13.68h3.75l4.57,13.59,4.1-13.59Z"/><g><path class="cls-1" d="M126.52,36.56c0-4.25-3.09-6.45-7.67-6.45h-7.7v19.58h4.03v-6.69c1.07,.15,2.17,.18,3.24,.18h.34c.47,.87,2.58,4.36,3.78,6.51h4.77c-.56-.88-4.14-6.55-4.67-7.36,2.38-1.1,3.88-3.18,3.88-5.77Zm-8.31,3.23c-1.01,0-2.02-.03-3.02-.18v-6.05h3.42c2.17,0,3.73,1.13,3.73,3.09s-1.38,3.15-4.13,3.15Z"/><polygon class="cls-1" points="55.09 30.11 51 43.68 46.33 30.11 42.87 30.11 38.38 43.77 34.38 30.11 30.1 30.11 36.73 49.7 39.79 49.7 44.52 35.55 49.38 49.7 52.47 49.7 59.07 30.11 55.09 30.11"/><polygon class="cls-1" points="80.91 49.7 85.01 49.7 85.01 33.69 91.11 33.69 92.78 30.11 74.59 30.11 72.92 33.69 80.91 33.69 80.91 49.7"/><polygon class="cls-1" points="139.9 49.7 139.9 33.69 146.01 33.69 147.68 30.11 129.48 30.11 127.82 33.69 135.81 33.69 135.81 49.7 139.9 49.7"/><path class="cls-1" d="M157.49,29.78c-6.02,0-10.33,4.46-10.33,10.14s4.31,10.11,10.33,10.11,10.21-4.34,10.21-10.11-4.28-10.14-10.21-10.14Zm0,16.62c-3.6,0-6.26-2.72-6.26-6.48s2.66-6.51,6.26-6.51,6.14,2.72,6.14,6.51-2.63,6.48-6.14,6.48Z"/><path class="cls-1" d="M226.52,42.33c2.38-1.1,3.88-3.18,3.88-5.77,0-4.25-3.09-6.45-7.67-6.45h-7.7v19.58h4.03v-6.69c1.07,.15,2.17,.18,3.24,.18h.34c.47,.87,2.58,4.36,3.78,6.51h4.77c-.56-.88-4.15-6.55-4.67-7.36Zm-4.43-2.54c-1.01,0-2.02-.03-3.03-.18v-6.05h3.42c2.17,0,3.73,1.13,3.73,3.09s-1.38,3.15-4.12,3.15Z"/><polygon class="cls-1" points="108.58 33.57 108.58 30.11 95.34 30.11 95.34 49.7 108.58 49.7 108.58 46.21 99.37 46.21 99.37 41.36 102.68 41.36 105.16 37.93 99.37 37.93 99.37 33.57 108.58 33.57"/><polygon class="cls-1" points="199.22 49.7 212.46 49.7 212.46 46.21 203.26 46.21 203.26 41.36 206.56 41.36 209.04 37.93 203.26 37.93 203.26 33.57 212.46 33.57 212.46 30.11 199.22 30.11 199.22 49.7"/></g></g></g><path class="cls-1" d="M16.84,17.31v50.41h8.65v-4.47h-4.18V21.78H240.49V63.25H119.29v4.47h125.68V17.31H16.84Z"/><g><path class="cls-1" d="M101.43,63.4c1.39-.64,2.26-1.86,2.26-3.37,0-2.48-1.8-3.76-4.48-3.76h-4.5v11.43h2.36v-3.91c.62,.09,1.27,.11,1.89,.11h.2c.28,.5,1.51,2.54,2.21,3.8h2.79c-.33-.51-2.42-3.82-2.73-4.3Zm-2.59-1.48c-.59,0-1.18-.02-1.77-.11v-3.53h2c1.27,0,2.18,.66,2.18,1.8s-.8,1.84-2.41,1.84Z"/><g><path class="cls-1" d="M39.74,67.53l-.88-2.22h-4.59l-.88,2.22h-2.41l4.78-11.25h1.67l4.75,11.25h-2.44Zm-4.75-4.08h3.15l-1.56-3.99-1.58,3.99Z"/><path class="cls-1" d="M47.76,56.26c3.71,0,6.15,2.25,6.15,5.63s-2.44,5.64-6.15,5.64h-4.11v-11.27h4.11Zm-.14,9.26c2.55,0,3.94-1.46,3.94-3.6s-1.39-3.66-3.94-3.66h-1.65v7.26h1.65Z"/><path class="cls-1" d="M62.83,56.26h2.53l-4.76,11.27h-1.51l-4.78-11.27h2.62l2.22,5.59,.79,2.37,.76-2.36,2.14-5.61Z"/><path class="cls-1" d="M66.82,67.53v-11.27h2.32v11.27h-2.32Z"/><path class="cls-1" d="M71.49,66.93l-.21-2.36c1.04,.76,2.43,1.21,3.74,1.21,1.51,0,2.37-.46,2.37-1.39,0-.81-.67-1.21-2.5-1.63-2.36-.51-3.57-1.55-3.57-3.3,0-2.09,1.71-3.39,4.31-3.39,1.27,0,2.41,.26,3.13,.65l.21,2.2c-1-.62-2.04-.91-3.34-.91s-2,.4-2,1.2,.56,1.02,2.27,1.44c2.64,.67,3.74,1.6,3.74,3.53,0,2.22-1.86,3.55-4.5,3.55-1.35,0-2.6-.28-3.66-.79Z"/><path class="cls-1" d="M80.99,61.9c0-3.27,2.48-5.84,5.94-5.84s5.87,2.5,5.87,5.84-2.46,5.82-5.87,5.82-5.94-2.55-5.94-5.82Zm9.48,0c0-2.18-1.51-3.74-3.53-3.74s-3.6,1.58-3.6,3.74,1.53,3.73,3.6,3.73,3.53-1.55,3.53-3.73Z"/><path class="cls-1" d="M105.63,66.93l-.21-2.36c1.04,.76,2.43,1.21,3.74,1.21,1.51,0,2.37-.46,2.37-1.39,0-.81-.67-1.21-2.5-1.63-2.36-.51-3.57-1.55-3.57-3.3,0-2.09,1.71-3.39,4.31-3.39,1.27,0,2.41,.26,3.13,.65l.21,2.2c-1-.62-2.04-.91-3.34-.91s-2,.4-2,1.2,.56,1.02,2.27,1.44c2.64,.67,3.74,1.6,3.74,3.53,0,2.22-1.86,3.55-4.5,3.55-1.35,0-2.6-.28-3.66-.79Z"/></g></g></svg>