<?xml version="1.0" encoding="UTF-8"?><svg id="logo_files" xmlns="http://www.w3.org/2000/svg" viewBox="0 0 500 500"><defs><style>.cls-1{fill:#c4cfda;}</style></defs><path class="cls-1" d="M135.94,224.79v50.41h8.65v-4.47h-4.18v-41.47h219.18v41.47h-121.21v4.47h125.68v-50.41H135.94Z"/><g><path class="cls-1" d="M220.52,270.88c1.39-.64,2.26-1.86,2.26-3.37,0-2.48-1.8-3.76-4.48-3.76h-4.5v11.43h2.36v-3.91c.62,.09,1.27,.11,1.89,.11h.2c.28,.5,1.51,2.54,2.21,3.8h2.79c-.33-.51-2.42-3.82-2.73-4.3Zm-2.59-1.48c-.59,0-1.18-.02-1.77-.11v-3.53h2c1.27,0,2.18,.66,2.18,1.8s-.8,1.84-2.41,1.84Z"/><g><path class="cls-1" d="M158.84,275.01l-.88-2.22h-4.59l-.88,2.22h-2.41l4.78-11.25h1.67l4.75,11.25h-2.44Zm-4.75-4.08h3.15l-1.56-3.99-1.58,3.99Z"/><path class="cls-1" d="M166.86,263.74c3.71,0,6.15,2.25,6.15,5.63s-2.44,5.64-6.15,5.64h-4.11v-11.27h4.11Zm-.14,9.26c2.55,0,3.94-1.46,3.94-3.6s-1.39-3.66-3.94-3.66h-1.65v7.26h1.65Z"/><path class="cls-1" d="M181.92,263.74h2.53l-4.76,11.27h-1.51l-4.78-11.27h2.62l2.22,5.59,.79,2.37,.76-2.36,2.14-5.61Z"/><path class="cls-1" d="M185.91,275.01v-11.27h2.32v11.27h-2.32Z"/><path class="cls-1" d="M190.59,274.41l-.21-2.36c1.04,.76,2.43,1.21,3.74,1.21,1.51,0,2.37-.46,2.37-1.39,0-.81-.67-1.21-2.5-1.63-2.36-.51-3.57-1.55-3.57-3.3,0-2.09,1.71-3.39,4.31-3.39,1.27,0,2.41,.26,3.13,.65l.21,2.2c-1-.62-2.04-.91-3.34-.91s-2,.4-2,1.2,.56,1.02,2.27,1.44c2.64,.67,3.74,1.6,3.74,3.53,0,2.22-1.86,3.55-4.5,3.55-1.35,0-2.6-.28-3.66-.79Z"/><path class="cls-1" d="M200.08,269.39c0-3.27,2.48-5.84,5.94-5.84s5.87,2.5,5.87,5.84-2.46,5.82-5.87,5.82-5.94-2.55-5.94-5.82Zm9.48,0c0-2.18-1.51-3.74-3.53-3.74s-3.6,1.58-3.6,3.74,1.53,3.73,3.6,3.73,3.53-1.55,3.53-3.73Z"/><path class="cls-1" d="M224.73,274.41l-.21-2.36c1.04,.76,2.43,1.21,3.74,1.21,1.51,0,2.37-.46,2.37-1.39,0-.81-.67-1.21-2.5-1.63-2.36-.51-3.57-1.55-3.57-3.3,0-2.09,1.71-3.39,4.31-3.39,1.27,0,2.41,.26,3.13,.65l.21,2.2c-1-.62-2.04-.91-3.34-.91s-2,.4-2,1.2,.56,1.02,2.27,1.44c2.64,.67,3.74,1.6,3.74,3.53,0,2.22-1.86,3.55-4.5,3.55-1.35,0-2.6-.28-3.66-.79Z"/></g></g><g><g><polygon class="cls-1" points="184.52 252.81 183.28 255.91 187.64 255.91 186.4 252.81 184.52 252.81"/><polygon class="cls-1" points="195.21 257.18 190.95 257.18 185.45 243.16 179.92 257.18 175.71 257.18 183.5 237.6 187.49 237.6 195.21 257.18"/></g><g><path class="cls-1" d="M311.83,237.58h3.98l-6.61,19.62h-3.09l-4.87-14.42-4.74,14.42h-3.06l-6.64-19.62h4.29l4.01,13.68,4.33-13.68h3.75l4.57,13.59,4.1-13.59Z"/><g><path class="cls-1" d="M245.61,244.05c0-4.25-3.09-6.45-7.67-6.45h-7.7v19.58h4.03v-6.69c1.07,.15,2.17,.18,3.24,.18h.34c.47,.87,2.58,4.36,3.78,6.51h4.77c-.56-.88-4.14-6.55-4.67-7.36,2.38-1.1,3.88-3.18,3.88-5.77Zm-8.31,3.23c-1.01,0-2.02-.03-3.02-.18v-6.05h3.42c2.17,0,3.73,1.13,3.73,3.09s-1.38,3.15-4.13,3.15Z"/><polygon class="cls-1" points="174.19 237.6 170.1 251.16 165.42 237.6 161.97 237.6 157.48 251.25 153.48 237.6 149.2 237.6 155.83 257.18 158.88 257.18 163.62 243.03 168.48 257.18 171.56 257.18 178.16 237.6 174.19 237.6"/><polygon class="cls-1" points="200.01 257.18 204.1 257.18 204.1 241.17 210.21 241.17 211.87 237.6 193.68 237.6 192.02 241.17 200.01 241.17 200.01 257.18"/><polygon class="cls-1" points="259 257.18 259 241.17 265.11 241.17 266.77 237.6 248.58 237.6 246.92 241.17 254.9 241.17 254.9 257.18 259 257.18"/><path class="cls-1" d="M276.59,237.26c-6.02,0-10.33,4.46-10.33,10.14s4.31,10.11,10.33,10.11,10.21-4.34,10.21-10.11-4.28-10.14-10.21-10.14Zm0,16.62c-3.6,0-6.26-2.72-6.26-6.48s2.66-6.51,6.26-6.51,6.14,2.72,6.14,6.51-2.63,6.48-6.14,6.48Z"/><path class="cls-1" d="M345.62,249.82c2.38-1.1,3.88-3.18,3.88-5.77,0-4.25-3.09-6.45-7.67-6.45h-7.7v19.58h4.03v-6.69c1.07,.15,2.17,.18,3.24,.18h.34c.47,.87,2.58,4.36,3.78,6.51h4.77c-.56-.88-4.15-6.55-4.67-7.36Zm-4.43-2.54c-1.01,0-2.02-.03-3.03-.18v-6.05h3.42c2.17,0,3.73,1.13,3.73,3.09s-1.38,3.15-4.12,3.15Z"/><polygon class="cls-1" points="227.68 241.05 227.68 237.6 214.44 237.6 214.44 257.18 227.68 257.18 227.68 253.7 218.47 253.7 218.47 248.84 221.78 248.84 224.26 245.42 218.47 245.42 218.47 241.05 227.68 241.05"/><polygon class="cls-1" points="318.32 257.18 331.56 257.18 331.56 253.7 322.35 253.7 322.35 248.84 325.66 248.84 328.14 245.42 322.35 245.42 322.35 241.05 331.56 241.05 331.56 237.6 318.32 237.6 318.32 257.18"/></g></g></g><path class="cls-1" d="M135.94,224.79v50.41h8.65v-4.47h-4.18v-41.47h219.18v41.47h-121.21v4.47h125.68v-50.41H135.94Z"/><g><path class="cls-1" d="M220.52,270.88c1.39-.64,2.26-1.86,2.26-3.37,0-2.48-1.8-3.76-4.48-3.76h-4.5v11.43h2.36v-3.91c.62,.09,1.27,.11,1.89,.11h.2c.28,.5,1.51,2.54,2.21,3.8h2.79c-.33-.51-2.42-3.82-2.73-4.3Zm-2.59-1.48c-.59,0-1.18-.02-1.77-.11v-3.53h2c1.27,0,2.18,.66,2.18,1.8s-.8,1.84-2.41,1.84Z"/><g><path class="cls-1" d="M158.84,275.01l-.88-2.22h-4.59l-.88,2.22h-2.41l4.78-11.25h1.67l4.75,11.25h-2.44Zm-4.75-4.08h3.15l-1.56-3.99-1.58,3.99Z"/><path class="cls-1" d="M166.86,263.74c3.71,0,6.15,2.25,6.15,5.63s-2.44,5.64-6.15,5.64h-4.11v-11.27h4.11Zm-.14,9.26c2.55,0,3.94-1.46,3.94-3.6s-1.39-3.66-3.94-3.66h-1.65v7.26h1.65Z"/><path class="cls-1" d="M181.92,263.74h2.53l-4.76,11.27h-1.51l-4.78-11.27h2.62l2.22,5.59,.79,2.37,.76-2.36,2.14-5.61Z"/><path class="cls-1" d="M185.91,275.01v-11.27h2.32v11.27h-2.32Z"/><path class="cls-1" d="M190.59,274.41l-.21-2.36c1.04,.76,2.43,1.21,3.74,1.21,1.51,0,2.37-.46,2.37-1.39,0-.81-.67-1.21-2.5-1.63-2.36-.51-3.57-1.55-3.57-3.3,0-2.09,1.71-3.39,4.31-3.39,1.27,0,2.41,.26,3.13,.65l.21,2.2c-1-.62-2.04-.91-3.34-.91s-2,.4-2,1.2,.56,1.02,2.27,1.44c2.64,.67,3.74,1.6,3.74,3.53,0,2.22-1.86,3.55-4.5,3.55-1.35,0-2.6-.28-3.66-.79Z"/><path class="cls-1" d="M200.08,269.39c0-3.27,2.48-5.84,5.94-5.84s5.87,2.5,5.87,5.84-2.46,5.82-5.87,5.82-5.94-2.55-5.94-5.82Zm9.48,0c0-2.18-1.51-3.74-3.53-3.74s-3.6,1.58-3.6,3.74,1.53,3.73,3.6,3.73,3.53-1.55,3.53-3.73Z"/><path class="cls-1" d="M224.73,274.41l-.21-2.36c1.04,.76,2.43,1.21,3.74,1.21,1.51,0,2.37-.46,2.37-1.39,0-.81-.67-1.21-2.5-1.63-2.36-.51-3.57-1.55-3.57-3.3,0-2.09,1.71-3.39,4.31-3.39,1.27,0,2.41,.26,3.13,.65l.21,2.2c-1-.62-2.04-.91-3.34-.91s-2,.4-2,1.2,.56,1.02,2.27,1.44c2.64,.67,3.74,1.6,3.74,3.53,0,2.22-1.86,3.55-4.5,3.55-1.35,0-2.6-.28-3.66-.79Z"/></g></g></svg>