<?xml version="1.0" encoding="UTF-8"?><svg id="logo_files" xmlns="http://www.w3.org/2000/svg" viewBox="0 0 500 500"><defs><style>.cls-1{fill:#011e41;}</style></defs><path class="cls-1" d="M285.6,271.44v21.34h-63.99v-21.34h-5.68v27.02h75.35v-27.02h-5.68Zm-69.67-69.9v27.38h5.68v-21.7h63.99v21.7h5.68v-27.38h-75.35Z"/><g><polygon class="cls-1" points="286.98 258.41 285.11 263.1 291.71 263.1 289.84 258.41 286.98 258.41"/><polygon class="cls-1" points="303.18 265.02 296.72 265.02 288.39 243.78 280.02 265.02 273.64 265.02 285.54 235.36 291.27 235.36 303.18 265.02"/></g><g><path class="cls-1" d="M234.67,235.36h6.02l-9.99,29.66h-4.67l-7.36-21.8-7.17,21.8h-4.63l-10.04-29.66h6.48l6.06,20.68,6.54-20.68h5.66l6.91,20.54,6.2-20.54Z"/><path class="cls-1" d="M272.09,240.77h-9.25v24.25h-6.2v-24.25h-11.63l2.05-5.41h27.42l-2.39,5.41Z"/></g></svg>