<?xml version="1.0" encoding="UTF-8"?><svg id="logo_files" xmlns="http://www.w3.org/2000/svg" viewBox="0 0 134.66 126.21"><defs><style>.cls-1{fill:#fff;}.cls-2{fill:#f05c40;}</style></defs><path class="cls-1" d="M102.93,84.73v21.34H38.94v-21.34h-5.68v27.02H108.61v-27.02h-5.68ZM33.26,14.83v27.38h5.68V20.51h63.99v21.7h5.68V14.83H33.26Z"/><g><polygon class="cls-2" points="104.31 71.7 102.43 76.39 109.04 76.39 107.17 71.7 104.31 71.7"/><polygon class="cls-1" points="120.51 78.31 114.05 78.31 105.71 57.07 97.34 78.31 90.97 78.31 102.86 48.65 108.59 48.65 120.51 78.31"/></g><g><path class="cls-1" d="M52,48.65h6.02l-9.99,29.66h-4.67l-7.36-21.8-7.17,21.8h-4.63l-10.04-29.66h6.48l6.06,20.68,6.54-20.68h5.66l6.91,20.54,6.2-20.54Z"/><path class="cls-1" d="M89.42,54.06h-9.25v24.25h-6.2v-24.25h-11.63l2.05-5.41h27.42l-2.39,5.41Z"/></g></svg>