<?xml version="1.0" encoding="UTF-8"?><svg xmlns="http://www.w3.org/2000/svg" viewBox="0 0 500 500"><defs><style>.cls-1{fill:#fff;}</style></defs><g id="background"><rect x="0" y="-1.24" width="500" height="500"/></g><g id="logo_files"><g><g><path class="cls-1" d="M217.97,266.75c1.58-.73,2.57-2.11,2.57-3.83,0-2.82-2.05-4.28-5.09-4.28h-5.11v12.99h2.68v-4.44c.71,.1,1.44,.12,2.15,.12h.22c.31,.57,1.71,2.89,2.51,4.32h3.17c-.37-.58-2.75-4.35-3.1-4.89Zm-2.94-1.68c-.67,0-1.34-.02-2.01-.12v-4.01h2.27c1.44,0,2.47,.75,2.47,2.05s-.91,2.09-2.74,2.09Z"/><g><path class="cls-1" d="M147.88,271.45l-1-2.52h-5.21l-1,2.52h-2.74l5.43-12.79h1.9l5.39,12.79h-2.78Zm-5.39-4.63h3.58l-1.78-4.53-1.8,4.53Z"/><path class="cls-1" d="M156.99,258.65c4.22,0,6.99,2.56,6.99,6.39s-2.78,6.41-6.99,6.41h-4.67v-12.81h4.67Zm-.16,10.53c2.9,0,4.47-1.66,4.47-4.1s-1.58-4.16-4.47-4.16h-1.88v8.25h1.88Z"/><path class="cls-1" d="M174.11,258.65h2.88l-5.41,12.81h-1.72l-5.43-12.81h2.98l2.52,6.35,.9,2.7,.86-2.68,2.44-6.37Z"/><path class="cls-1" d="M178.64,271.45v-12.81h2.64v12.81h-2.64Z"/><path class="cls-1" d="M183.96,270.77l-.24-2.68c1.18,.86,2.76,1.38,4.26,1.38,1.72,0,2.7-.52,2.7-1.58,0-.92-.76-1.38-2.84-1.86-2.68-.58-4.06-1.76-4.06-3.76,0-2.38,1.94-3.86,4.89-3.86,1.44,0,2.74,.3,3.56,.74l.24,2.5c-1.14-.7-2.32-1.04-3.8-1.04s-2.28,.46-2.28,1.36,.64,1.16,2.58,1.64c3,.76,4.26,1.82,4.26,4.02,0,2.52-2.12,4.04-5.11,4.04-1.54,0-2.96-.32-4.16-.9Z"/><path class="cls-1" d="M194.74,265.06c0-3.72,2.82-6.63,6.75-6.63s6.67,2.84,6.67,6.63-2.8,6.61-6.67,6.61-6.75-2.9-6.75-6.61Zm10.77,0c0-2.48-1.72-4.26-4.02-4.26s-4.1,1.8-4.1,4.26,1.74,4.23,4.1,4.23,4.02-1.76,4.02-4.23Z"/><path class="cls-1" d="M222.75,270.77l-.24-2.68c1.18,.86,2.76,1.38,4.26,1.38,1.72,0,2.7-.52,2.7-1.58,0-.92-.76-1.38-2.84-1.86-2.68-.58-4.06-1.76-4.06-3.76,0-2.38,1.94-3.86,4.89-3.86,1.44,0,2.74,.3,3.56,.74l.24,2.5c-1.14-.7-2.32-1.04-3.8-1.04s-2.28,.46-2.28,1.36,.64,1.16,2.58,1.64c3,.76,4.26,1.82,4.26,4.02,0,2.52-2.12,4.04-5.11,4.04-1.54,0-2.96-.32-4.16-.9Z"/></g></g><g><g><polygon class="cls-1" points="175.93 245.99 174.53 249.51 179.48 249.51 178.08 245.99 175.93 245.99"/><polygon class="cls-1" points="188.08 250.94 183.23 250.94 176.99 235.02 170.71 250.94 165.93 250.94 174.78 228.71 179.31 228.71 188.08 250.94"/></g><g><path class="cls-1" d="M320.5,228.69h4.52l-7.51,22.28h-3.51l-5.53-16.38-5.39,16.38h-3.48l-7.54-22.28h4.87l4.55,15.54,4.91-15.54h4.25l5.19,15.43,4.66-15.43Z"/><g><path class="cls-1" d="M245.31,236.03c0-4.83-3.5-7.32-8.71-7.32h-8.74v22.23h4.58v-7.6c1.21,.17,2.46,.21,3.68,.21h.38c.54,.98,2.93,4.95,4.29,7.39h5.42c-.63-1-4.7-7.44-5.3-8.36,2.7-1.25,4.4-3.61,4.4-6.55Zm-9.44,3.67c-1.14,0-2.29-.03-3.43-.21v-6.87h3.88c2.46,0,4.23,1.29,4.23,3.5s-1.56,3.57-4.69,3.57Z"/><polygon class="cls-1" points="164.21 228.71 159.56 244.11 154.25 228.71 150.33 228.71 145.23 244.22 140.69 228.71 135.83 228.71 143.36 250.95 146.83 250.95 152.21 234.88 157.72 250.95 161.23 250.95 168.72 228.71 164.21 228.71"/><polygon class="cls-1" points="193.53 250.95 198.17 250.95 198.17 232.77 205.11 232.77 207 228.71 186.34 228.71 184.45 232.77 193.53 232.77 193.53 250.95"/><polygon class="cls-1" points="260.51 250.95 260.51 232.77 267.45 232.77 269.34 228.71 248.68 228.71 246.79 232.77 255.86 232.77 255.86 250.95 260.51 250.95"/><path class="cls-1" d="M280.48,228.33c-6.83,0-11.72,5.06-11.72,11.52s4.89,11.48,11.72,11.48,11.59-4.93,11.59-11.48-4.85-11.52-11.59-11.52Zm0,18.87c-4.09,0-7.11-3.09-7.11-7.36s3.02-7.39,7.11-7.39,6.97,3.08,6.97,7.39-2.98,7.36-6.97,7.36Z"/><path class="cls-1" d="M358.86,242.59c2.7-1.25,4.4-3.61,4.4-6.55,0-4.83-3.5-7.32-8.71-7.32h-8.74v22.23h4.58v-7.6c1.21,.17,2.46,.21,3.68,.21h.38c.54,.98,2.93,4.95,4.29,7.39h5.42c-.64-1-4.71-7.44-5.31-8.36Zm-5.03-2.88c-1.15,0-2.29-.03-3.44-.21v-6.87h3.88c2.46,0,4.23,1.29,4.23,3.5s-1.56,3.57-4.68,3.57Z"/><polygon class="cls-1" points="224.94 232.63 224.94 228.71 209.91 228.71 209.91 250.95 224.94 250.95 224.94 246.99 214.49 246.99 214.49 241.48 218.24 241.48 221.06 237.59 214.49 237.59 214.49 232.63 224.94 232.63"/><polygon class="cls-1" points="327.86 250.95 342.9 250.95 342.9 246.99 332.44 246.99 332.44 241.48 336.2 241.48 339.01 237.59 332.44 237.59 332.44 232.63 342.9 232.63 342.9 228.71 327.86 228.71 327.86 250.95"/></g></g></g><g><path class="cls-1" d="M217.97,266.75c1.58-.73,2.57-2.11,2.57-3.83,0-2.82-2.05-4.28-5.09-4.28h-5.11v12.99h2.68v-4.44c.71,.1,1.44,.12,2.15,.12h.22c.31,.57,1.71,2.89,2.51,4.32h3.17c-.37-.58-2.75-4.35-3.1-4.89Zm-2.94-1.68c-.67,0-1.34-.02-2.01-.12v-4.01h2.27c1.44,0,2.47,.75,2.47,2.05s-.91,2.09-2.74,2.09Z"/><g><path class="cls-1" d="M147.88,271.45l-1-2.52h-5.21l-1,2.52h-2.74l5.43-12.79h1.9l5.39,12.79h-2.78Zm-5.39-4.63h3.58l-1.78-4.53-1.8,4.53Z"/><path class="cls-1" d="M156.99,258.65c4.22,0,6.99,2.56,6.99,6.39s-2.78,6.41-6.99,6.41h-4.67v-12.81h4.67Zm-.16,10.53c2.9,0,4.47-1.66,4.47-4.1s-1.58-4.16-4.47-4.16h-1.88v8.25h1.88Z"/><path class="cls-1" d="M174.11,258.65h2.88l-5.41,12.81h-1.72l-5.43-12.81h2.98l2.52,6.35,.9,2.7,.86-2.68,2.44-6.37Z"/><path class="cls-1" d="M178.64,271.45v-12.81h2.64v12.81h-2.64Z"/><path class="cls-1" d="M183.96,270.77l-.24-2.68c1.18,.86,2.76,1.38,4.26,1.38,1.72,0,2.7-.52,2.7-1.58,0-.92-.76-1.38-2.84-1.86-2.68-.58-4.06-1.76-4.06-3.76,0-2.38,1.94-3.86,4.89-3.86,1.44,0,2.74,.3,3.56,.74l.24,2.5c-1.14-.7-2.32-1.04-3.8-1.04s-2.28,.46-2.28,1.36,.64,1.16,2.58,1.64c3,.76,4.26,1.82,4.26,4.02,0,2.52-2.12,4.04-5.11,4.04-1.54,0-2.96-.32-4.16-.9Z"/><path class="cls-1" d="M194.74,265.06c0-3.72,2.82-6.63,6.75-6.63s6.67,2.84,6.67,6.63-2.8,6.61-6.67,6.61-6.75-2.9-6.75-6.61Zm10.77,0c0-2.48-1.72-4.26-4.02-4.26s-4.1,1.8-4.1,4.26,1.74,4.23,4.1,4.23,4.02-1.76,4.02-4.23Z"/><path class="cls-1" d="M222.75,270.77l-.24-2.68c1.18,.86,2.76,1.38,4.26,1.38,1.72,0,2.7-.52,2.7-1.58,0-.92-.76-1.38-2.84-1.86-2.68-.58-4.06-1.76-4.06-3.76,0-2.38,1.94-3.86,4.89-3.86,1.44,0,2.74,.3,3.56,.74l.24,2.5c-1.14-.7-2.32-1.04-3.8-1.04s-2.28,.46-2.28,1.36,.64,1.16,2.58,1.64c3,.76,4.26,1.82,4.26,4.02,0,2.52-2.12,4.04-5.11,4.04-1.54,0-2.96-.32-4.16-.9Z"/></g></g></g></g></svg>