<?xml version="1.0" encoding="UTF-8"?><svg id="logo_files" xmlns="http://www.w3.org/2000/svg" viewBox="0 0 500 500"><defs><style>.cls-1{fill:#fff;}</style></defs><g><g><g><path class="cls-1" d="M207.58,264.58v6.68h1.38v-6.68h-1.38Z"/><path class="cls-1" d="M215.37,264.58v4.45l-3.16-4.45h-1.39v6.68h1.33v-4.59l3.32,4.67h1.24v-6.75h-1.35Z"/><path class="cls-1" d="M222.88,264.58l-1.27,3.32-.45,1.4-.47-1.41-1.31-3.31h-1.55l2.83,6.68h.9l2.83-6.68h-1.5Z"/><path class="cls-1" d="M234.07,267.17c-1.01-.25-1.34-.4-1.34-.85,0-.47,.45-.71,1.19-.71s1.39,.18,1.98,.54l-.13-1.3c-.42-.23-1.1-.39-1.85-.39-1.54,0-2.55,.77-2.55,2.01,0,1.04,.72,1.65,2.12,1.96,1.08,.25,1.48,.49,1.48,.97,0,.55-.51,.82-1.41,.82-.78,0-1.61-.27-2.22-.72l.12,1.39c.63,.3,1.37,.47,2.17,.47,1.56,0,2.67-.79,2.67-2.11,0-1.14-.65-1.7-2.22-2.09Z"/><path class="cls-1" d="M237.02,264.58l-.09,1.22h2.24v5.46h1.4v-5.46h2.08l.08-1.22h-5.72Z"/><path class="cls-1" d="M251.01,264.58h-1.48l-1.99,4.27-1.97-4.27h-1.57l-.17,6.68h1.34l.07-4.61,1.79,3.9h.91l1.76-3.73,.12,4.45h1.34l-.16-6.68Z"/><path class="cls-1" d="M263.66,264.58v4.45l-3.17-4.45h-1.39v6.68h1.34v-4.59l3.32,4.67h1.24v-6.75h-1.34Z"/><path class="cls-1" d="M266.28,264.58l-.09,1.22h2.24v5.46h1.39v-5.46h2.09l.08-1.22h-5.72Z"/><path class="cls-1" d="M279.5,267.68c.48-.27,.74-.75,.74-1.39,0-1.07-.81-1.72-2.18-1.72h-2.67v6.68h2.47c1.83,0,2.67-.62,2.67-1.95,0-.8-.4-1.37-1.03-1.63Zm-2.73-1.99h1.06c.69,0,1.04,.28,1.04,.83s-.35,.82-1.04,.82h-1.06v-1.65Zm1.26,4.45h-1.26v-1.75h1.26c.75,0,1.13,.3,1.13,.86s-.38,.89-1.13,.89Z"/><path class="cls-1" d="M284.98,264.59h-.99l-2.83,6.67h1.43l.52-1.31h2.72l.52,1.31h1.45l-2.81-6.67Zm-1.45,4.25l.94-2.36,.93,2.36h-1.86Z"/><path class="cls-1" d="M293.47,264.58v4.45l-3.17-4.45h-1.39v6.68h1.34v-4.59l3.32,4.67h1.24v-6.75h-1.34Z"/><path class="cls-1" d="M296.67,264.58v6.68h1.37v-6.68h-1.37Zm2.93,3.19l2.6-3.19h-1.59l-2.65,3.24v.12l2.58,3.31h1.77l-2.72-3.49Z"/></g><polygon class="cls-1" points="254.33 265.76 254.33 267.25 256.93 267.25 256.93 268.42 254.33 268.42 254.33 270.07 257.47 270.07 257.47 271.26 252.95 271.26 252.95 264.58 257.47 264.58 257.47 265.76 254.33 265.76"/><polygon class="cls-1" points="226.85 265.76 226.85 267.25 229.45 267.25 229.45 268.42 226.85 268.42 226.85 270.07 229.99 270.07 229.99 271.26 225.47 271.26 225.47 264.58 229.99 264.58 229.99 265.76 226.85 265.76"/></g><path class="cls-1" d="M216.44,202.08v20.03h5.59v-14.43h62.98v14.43h5.6v-20.03h-74.16Zm68.57,75.8v14.44h-62.98v-14.44h-5.59v20.03h74.16v-20.03h-5.6Z"/></g><g><polygon class="cls-1" points="286.39 251.72 284.54 256.34 291.05 256.34 289.2 251.72 286.39 251.72"/><polygon class="cls-1" points="302.33 258.23 295.97 258.23 287.77 237.33 279.54 258.23 273.26 258.23 284.97 229.05 290.61 229.05 302.33 258.23"/></g><g><path class="cls-1" d="M234.92,229.05h5.92l-9.83,29.18h-4.6l-7.24-21.45-7.06,21.45h-4.55l-9.88-29.18h6.37l5.96,20.35,6.43-20.35h5.57l6.8,20.22,6.1-20.22Z"/><path class="cls-1" d="M271.73,234.37h-9.11v23.86h-6.1v-23.86h-11.44l2.02-5.33h26.98l-2.35,5.33Z"/></g></svg>