<?xml version="1.0" encoding="UTF-8"?><svg id="logo_files" xmlns="http://www.w3.org/2000/svg" viewBox="0 0 134.66 126.21"><defs><style>.cls-1{fill:#c4cfda;}</style></defs><g><g><g><path class="cls-1" d="M24.91,77.87v6.68h1.38v-6.68h-1.38Z"/><path class="cls-1" d="M32.7,77.87v4.45l-3.16-4.45h-1.39v6.68h1.33v-4.59l3.32,4.67h1.24v-6.75h-1.35Z"/><path class="cls-1" d="M40.2,77.87l-1.27,3.32-.45,1.4-.47-1.41-1.31-3.31h-1.55l2.83,6.68h.9l2.83-6.68h-1.5Z"/><path class="cls-1" d="M51.4,80.47c-1.01-.25-1.34-.4-1.34-.85,0-.47,.45-.71,1.19-.71s1.39,.18,1.98,.54l-.13-1.3c-.42-.23-1.1-.39-1.85-.39-1.54,0-2.55,.77-2.55,2.01,0,1.04,.72,1.65,2.12,1.96,1.08,.25,1.48,.49,1.48,.97,0,.55-.51,.82-1.41,.82-.78,0-1.61-.27-2.22-.72l.12,1.39c.63,.3,1.37,.47,2.17,.47,1.56,0,2.67-.79,2.67-2.11,0-1.14-.65-1.7-2.22-2.09Z"/><path class="cls-1" d="M54.35,77.87l-.09,1.22h2.24v5.46h1.4v-5.46h2.08l.08-1.22h-5.72Z"/><path class="cls-1" d="M68.34,77.87h-1.48l-1.99,4.27-1.97-4.27h-1.57l-.17,6.68h1.34l.07-4.61,1.79,3.9h.91l1.76-3.73,.12,4.45h1.34l-.16-6.68Z"/><path class="cls-1" d="M80.99,77.87v4.45l-3.17-4.45h-1.39v6.68h1.34v-4.59l3.32,4.67h1.24v-6.75h-1.34Z"/><path class="cls-1" d="M83.61,77.87l-.09,1.22h2.24v5.46h1.39v-5.46h2.09l.08-1.22h-5.72Z"/><path class="cls-1" d="M96.83,80.98c.48-.27,.74-.75,.74-1.39,0-1.07-.81-1.72-2.18-1.72h-2.67v6.68h2.47c1.83,0,2.67-.62,2.67-1.95,0-.8-.4-1.37-1.03-1.63Zm-2.73-1.99h1.06c.69,0,1.04,.28,1.04,.83s-.35,.82-1.04,.82h-1.06v-1.65Zm1.26,4.45h-1.26v-1.75h1.26c.75,0,1.13,.3,1.13,.86s-.38,.89-1.13,.89Z"/><path class="cls-1" d="M102.31,77.88h-.99l-2.83,6.67h1.43l.52-1.31h2.72l.52,1.31h1.45l-2.81-6.67Zm-1.45,4.25l.94-2.36,.93,2.36h-1.86Z"/><path class="cls-1" d="M110.8,77.87v4.45l-3.17-4.45h-1.39v6.68h1.34v-4.59l3.32,4.67h1.24v-6.75h-1.34Z"/><path class="cls-1" d="M114,77.87v6.68h1.37v-6.68h-1.37Zm2.93,3.19l2.6-3.19h-1.59l-2.65,3.24v.12l2.58,3.31h1.77l-2.72-3.49Z"/></g><polygon class="cls-1" points="71.65 79.05 71.65 80.54 74.26 80.54 74.26 81.71 71.65 81.71 71.65 83.36 74.79 83.36 74.79 84.55 70.28 84.55 70.28 77.87 74.79 77.87 74.79 79.05 71.65 79.05"/><polygon class="cls-1" points="44.18 79.05 44.18 80.54 46.78 80.54 46.78 81.71 44.18 81.71 44.18 83.36 47.32 83.36 47.32 84.55 42.8 84.55 42.8 77.87 47.32 77.87 47.32 79.05 44.18 79.05"/></g><path class="cls-1" d="M33.77,15.38v20.03h5.59v-14.43h62.98v14.43h5.6V15.38H33.77ZM102.34,91.18v14.44H39.36v-14.44h-5.59v20.03H107.93v-20.03h-5.6Z"/></g><g><polygon class="cls-1" points="103.72 65.02 101.87 69.63 108.37 69.63 106.53 65.02 103.72 65.02"/><polygon class="cls-1" points="119.66 71.52 113.3 71.52 105.1 50.62 96.86 71.52 90.59 71.52 102.29 42.34 107.93 42.34 119.66 71.52"/></g><g><path class="cls-1" d="M52.24,42.34h5.92l-9.83,29.18h-4.6l-7.24-21.45-7.06,21.45h-4.55l-9.88-29.18h6.37l5.96,20.35,6.43-20.35h5.57l6.8,20.22,6.1-20.22Z"/><path class="cls-1" d="M89.06,47.66h-9.11v23.86h-6.1v-23.86h-11.44l2.02-5.33h26.98l-2.35,5.33Z"/></g></svg>