<?xml version="1.0" encoding="UTF-8"?><svg id="logo_files" xmlns="http://www.w3.org/2000/svg" viewBox="0 0 262.62 75.77"><defs><style>.cls-1{fill:#fff;}</style></defs><rect x="128.64" y="44.71" width="119.08" height="17.33"/><g><path d="M104.73,55.28c1.77-.82,2.88-2.36,2.88-4.28,0-3.15-2.29-4.78-5.68-4.78h-5.71v14.52h2.99v-4.96c.79,.11,1.61,.14,2.4,.14h.25c.35,.64,1.91,3.23,2.8,4.82h3.54c-.41-.65-3.07-4.86-3.46-5.46Zm-3.28-1.88c-.75,0-1.5-.02-2.24-.14v-4.49h2.54c1.61,0,2.76,.84,2.76,2.29s-1.02,2.33-3.06,2.33Z"/><g><path d="M26.4,60.52l-1.12-2.81h-5.83l-1.12,2.81h-3.06l6.07-14.29h2.12l6.03,14.29h-3.1Zm-6.03-5.18h4l-1.99-5.07-2.01,5.07Z"/><path d="M36.58,46.22c4.71,0,7.81,2.86,7.81,7.14s-3.1,7.17-7.81,7.17h-5.22v-14.31h5.22Zm-.18,11.76c3.24,0,5-1.85,5-4.58s-1.76-4.64-5-4.64h-2.1v9.22h2.1Z"/><path d="M55.72,46.22h3.21l-6.05,14.31h-1.92l-6.07-14.31h3.33l2.81,7.1,1,3.01,.96-2.99,2.72-7.12Z"/><path d="M60.78,60.52v-14.31h2.95v14.31h-2.95Z"/><path d="M66.72,59.77l-.27-2.99c1.32,.96,3.08,1.54,4.75,1.54,1.92,0,3.01-.58,3.01-1.76,0-1.03-.85-1.54-3.17-2.08-2.99-.65-4.53-1.96-4.53-4.2,0-2.66,2.17-4.31,5.47-4.31,1.61,0,3.06,.34,3.97,.83l.27,2.79c-1.27-.78-2.59-1.16-4.24-1.16s-2.54,.51-2.54,1.52,.71,1.29,2.88,1.83c3.35,.85,4.76,2.03,4.76,4.49,0,2.81-2.37,4.51-5.71,4.51-1.72,0-3.3-.36-4.64-1Z"/><path d="M78.78,53.38c0-4.15,3.15-7.41,7.55-7.41s7.46,3.17,7.46,7.41-3.13,7.39-7.46,7.39-7.55-3.24-7.55-7.39Zm12.03,0c0-2.77-1.92-4.76-4.49-4.76s-4.58,2.01-4.58,4.76,1.94,4.73,4.58,4.73,4.49-1.96,4.49-4.73Z"/><path d="M110.07,59.77l-.27-2.99c1.32,.96,3.08,1.54,4.75,1.54,1.92,0,3.01-.58,3.01-1.76,0-1.03-.85-1.54-3.17-2.08-2.99-.65-4.53-1.96-4.53-4.2,0-2.66,2.17-4.31,5.47-4.31,1.61,0,3.06,.34,3.97,.83l.27,2.79c-1.27-.78-2.59-1.16-4.24-1.16s-2.54,.51-2.54,1.52,.71,1.29,2.88,1.83c3.35,.85,4.76,2.03,4.76,4.49,0,2.81-2.37,4.51-5.71,4.51-1.72,0-3.3-.36-4.64-1Z"/></g></g><g><g><path d="M136.81,49.75v7.24h1.49v-7.24h-1.49Z"/><path d="M145.26,49.75v4.83l-3.43-4.83h-1.5v7.24h1.44v-4.98l3.61,5.06h1.35v-7.32h-1.46Z"/><path d="M153.39,49.75l-1.38,3.6-.49,1.52-.51-1.52-1.42-3.59h-1.68l3.07,7.24h.97l3.06-7.24h-1.63Z"/><path d="M165.53,52.56c-1.09-.27-1.46-.44-1.46-.92,0-.51,.49-.77,1.29-.77s1.5,.19,2.15,.59l-.14-1.41c-.46-.25-1.19-.42-2.01-.42-1.67,0-2.77,.84-2.77,2.18,0,1.13,.78,1.79,2.3,2.12,1.17,.27,1.6,.53,1.6,1.05,0,.6-.55,.89-1.52,.89-.85,0-1.74-.29-2.41-.78l.14,1.51c.68,.33,1.48,.51,2.35,.51,1.7,0,2.89-.86,2.89-2.28,0-1.24-.71-1.84-2.41-2.27Z"/><path d="M168.73,49.75l-.09,1.32h2.43v5.92h1.52v-5.92h2.26l.09-1.32h-6.2Z"/><path d="M183.9,49.75h-1.6l-2.16,4.63-2.14-4.63h-1.71l-.18,7.24h1.45l.08-5,1.94,4.23h.98l1.91-4.05,.14,4.83h1.46l-.17-7.24Z"/><path d="M197.62,49.75v4.83l-3.44-4.83h-1.5v7.24h1.45v-4.98l3.61,5.06h1.34v-7.32h-1.46Z"/><path d="M200.46,49.75l-.09,1.32h2.43v5.92h1.51v-5.92h2.26l.09-1.32h-6.2Z"/><path d="M214.79,53.11c.52-.29,.8-.81,.8-1.5,0-1.16-.88-1.86-2.36-1.86h-2.89v7.24h2.68c1.99,0,2.89-.67,2.89-2.11,0-.87-.43-1.49-1.12-1.76Zm-2.96-2.16h1.15c.75,0,1.13,.3,1.13,.89s-.38,.89-1.13,.89h-1.15v-1.79Zm1.37,4.83h-1.37v-1.9h1.37c.81,0,1.22,.33,1.22,.94s-.41,.96-1.22,.96Z"/><path d="M220.74,49.76h-1.07l-3.07,7.23h1.55l.57-1.42h2.95l.57,1.42h1.57l-3.05-7.23Zm-1.57,4.61l1.02-2.56,1,2.56h-2.02Z"/><path d="M229.95,49.75v4.83l-3.44-4.83h-1.5v7.24h1.45v-4.98l3.61,5.06h1.34v-7.32h-1.46Z"/><path d="M233.42,49.75v7.24h1.49v-7.24h-1.49Zm3.17,3.46l2.82-3.46h-1.73l-2.87,3.51v.14l2.8,3.59h1.92l-2.95-3.78Z"/></g><polygon points="187.5 51.02 187.5 52.64 190.32 52.64 190.32 53.91 187.5 53.91 187.5 55.7 190.9 55.7 190.9 56.99 186 56.99 186 49.75 190.9 49.75 190.9 51.02 187.5 51.02"/><polygon points="157.7 51.02 157.7 52.64 160.52 52.64 160.52 53.91 157.7 53.91 157.7 55.7 161.11 55.7 161.11 56.99 156.21 56.99 156.21 49.75 161.11 49.75 161.11 51.02 157.7 51.02"/></g><g><g><polygon points="56.11 32.97 54.68 36.56 59.72 36.56 58.29 32.97 56.11 32.97"/><polygon points="68.47 38.02 63.54 38.02 57.18 21.81 50.79 38.02 45.93 38.02 54.93 15.39 59.55 15.39 68.47 38.02"/></g><g><path d="M203.26,15.37h4.6l-7.64,22.68h-3.57l-5.63-16.67-5.48,16.67h-3.54l-7.68-22.68h4.95l4.63,15.81,5-15.81h4.33l5.28,15.71,4.74-15.71Z"/><g><path d="M126.73,22.84c0-4.91-3.57-7.45-8.86-7.45h-8.9v22.63h4.66v-7.73c1.24,.18,2.51,.21,3.74,.21h.39c.55,1,2.98,5.04,4.37,7.52h5.51c-.64-1.02-4.79-7.57-5.4-8.51,2.75-1.28,4.48-3.68,4.48-6.67Zm-9.61,3.74c-1.16,0-2.33-.03-3.49-.21v-6.99h3.95c2.51,0,4.31,1.31,4.31,3.57s-1.59,3.64-4.77,3.64Z"/><polygon points="44.17 15.39 39.44 31.07 34.04 15.39 30.05 15.39 24.85 31.17 20.23 15.39 15.29 15.39 22.95 38.02 26.48 38.02 31.95 21.67 37.57 38.02 41.14 38.02 48.76 15.39 44.17 15.39"/><polygon points="74.01 38.02 78.75 38.02 78.75 19.52 85.81 19.52 87.73 15.39 66.7 15.39 64.78 19.52 74.01 19.52 74.01 38.02"/><polygon points="142.2 38.02 142.2 19.52 149.26 19.52 151.18 15.39 130.16 15.39 128.23 19.52 137.47 19.52 137.47 38.02 142.2 38.02"/><path d="M162.53,15c-6.95,0-11.94,5.15-11.94,11.72s4.98,11.69,11.94,11.69,11.8-5.01,11.8-11.69-4.94-11.72-11.8-11.72Zm0,19.21c-4.17,0-7.24-3.14-7.24-7.49s3.07-7.52,7.24-7.52,7.1,3.14,7.1,7.52-3.03,7.49-7.1,7.49Z"/><path d="M242.31,29.51c2.75-1.28,4.48-3.68,4.48-6.67,0-4.91-3.57-7.45-8.86-7.45h-8.9v22.63h4.66v-7.73c1.24,.18,2.51,.21,3.74,.21h.39c.55,1,2.99,5.04,4.37,7.52h5.52c-.65-1.02-4.79-7.57-5.4-8.51Zm-5.12-2.93c-1.17,0-2.33-.03-3.5-.21v-6.99h3.95c2.51,0,4.31,1.31,4.31,3.57s-1.59,3.64-4.76,3.64Z"/><polygon points="106 19.38 106 15.39 90.69 15.39 90.69 38.02 106 38.02 106 34 95.35 34 95.35 28.38 99.17 28.38 102.04 24.43 95.35 24.43 95.35 19.38 106 19.38"/><polygon points="210.76 38.02 226.07 38.02 226.07 34 215.42 34 215.42 28.38 219.24 28.38 222.11 24.43 215.42 24.43 215.42 19.38 226.07 19.38 226.07 15.39 210.76 15.39 210.76 38.02"/></g></g></g><rect x="128.64" y="44.71" width="119.08" height="17.33"/><g><path d="M104.73,55.28c1.77-.82,2.88-2.36,2.88-4.28,0-3.15-2.29-4.78-5.68-4.78h-5.71v14.52h2.99v-4.96c.79,.11,1.61,.14,2.4,.14h.25c.35,.64,1.91,3.23,2.8,4.82h3.54c-.41-.65-3.07-4.86-3.46-5.46Zm-3.28-1.88c-.75,0-1.5-.02-2.24-.14v-4.49h2.54c1.61,0,2.76,.84,2.76,2.29s-1.02,2.33-3.06,2.33Z"/><g><path d="M26.4,60.52l-1.12-2.81h-5.83l-1.12,2.81h-3.06l6.07-14.29h2.12l6.03,14.29h-3.1Zm-6.03-5.18h4l-1.99-5.07-2.01,5.07Z"/><path d="M36.58,46.22c4.71,0,7.81,2.86,7.81,7.14s-3.1,7.17-7.81,7.17h-5.22v-14.31h5.22Zm-.18,11.76c3.24,0,5-1.85,5-4.58s-1.76-4.64-5-4.64h-2.1v9.22h2.1Z"/><path d="M55.72,46.22h3.21l-6.05,14.31h-1.92l-6.07-14.31h3.33l2.81,7.1,1,3.01,.96-2.99,2.72-7.12Z"/><path d="M60.78,60.52v-14.31h2.95v14.31h-2.95Z"/><path d="M66.72,59.77l-.27-2.99c1.32,.96,3.08,1.54,4.75,1.54,1.92,0,3.01-.58,3.01-1.76,0-1.03-.85-1.54-3.17-2.08-2.99-.65-4.53-1.96-4.53-4.2,0-2.66,2.17-4.31,5.47-4.31,1.61,0,3.06,.34,3.97,.83l.27,2.79c-1.27-.78-2.59-1.16-4.24-1.16s-2.54,.51-2.54,1.52,.71,1.29,2.88,1.83c3.35,.85,4.76,2.03,4.76,4.49,0,2.81-2.37,4.51-5.71,4.51-1.72,0-3.3-.36-4.64-1Z"/><path d="M78.78,53.38c0-4.15,3.15-7.41,7.55-7.41s7.46,3.17,7.46,7.41-3.13,7.39-7.46,7.39-7.55-3.24-7.55-7.39Zm12.03,0c0-2.77-1.92-4.76-4.49-4.76s-4.58,2.01-4.58,4.76,1.94,4.73,4.58,4.73,4.49-1.96,4.49-4.73Z"/><path d="M110.07,59.77l-.27-2.99c1.32,.96,3.08,1.54,4.75,1.54,1.92,0,3.01-.58,3.01-1.76,0-1.03-.85-1.54-3.17-2.08-2.99-.65-4.53-1.96-4.53-4.2,0-2.66,2.17-4.31,5.47-4.31,1.61,0,3.06,.34,3.97,.83l.27,2.79c-1.27-.78-2.59-1.16-4.24-1.16s-2.54,.51-2.54,1.52,.71,1.29,2.88,1.83c3.35,.85,4.76,2.03,4.76,4.49,0,2.81-2.37,4.51-5.71,4.51-1.72,0-3.3-.36-4.64-1Z"/></g></g><g><g><path class="cls-1" d="M136.81,49.75v7.24h1.49v-7.24h-1.49Z"/><path class="cls-1" d="M145.26,49.75v4.83l-3.43-4.83h-1.5v7.24h1.44v-4.98l3.61,5.06h1.35v-7.32h-1.46Z"/><path class="cls-1" d="M153.39,49.75l-1.38,3.6-.49,1.52-.51-1.52-1.42-3.59h-1.68l3.07,7.24h.97l3.06-7.24h-1.63Z"/><path class="cls-1" d="M165.53,52.56c-1.09-.27-1.46-.44-1.46-.92,0-.51,.49-.77,1.29-.77s1.5,.19,2.15,.59l-.14-1.41c-.46-.25-1.19-.42-2.01-.42-1.67,0-2.77,.84-2.77,2.18,0,1.13,.78,1.79,2.3,2.12,1.17,.27,1.6,.53,1.6,1.05,0,.6-.55,.89-1.52,.89-.85,0-1.74-.29-2.41-.78l.14,1.51c.68,.33,1.48,.51,2.35,.51,1.7,0,2.89-.86,2.89-2.28,0-1.24-.71-1.84-2.41-2.27Z"/><path class="cls-1" d="M168.73,49.75l-.09,1.32h2.43v5.92h1.52v-5.92h2.26l.09-1.32h-6.2Z"/><path class="cls-1" d="M183.9,49.75h-1.6l-2.16,4.63-2.14-4.63h-1.71l-.18,7.24h1.45l.08-5,1.94,4.23h.98l1.91-4.05,.14,4.83h1.46l-.17-7.24Z"/><path class="cls-1" d="M197.62,49.75v4.83l-3.44-4.83h-1.5v7.24h1.45v-4.98l3.61,5.06h1.34v-7.32h-1.46Z"/><path class="cls-1" d="M200.46,49.75l-.09,1.32h2.43v5.92h1.51v-5.92h2.26l.09-1.32h-6.2Z"/><path class="cls-1" d="M214.79,53.11c.52-.29,.8-.81,.8-1.5,0-1.16-.88-1.86-2.36-1.86h-2.89v7.24h2.68c1.99,0,2.89-.67,2.89-2.11,0-.87-.43-1.49-1.12-1.76Zm-2.96-2.16h1.15c.75,0,1.13,.3,1.13,.89s-.38,.89-1.13,.89h-1.15v-1.79Zm1.37,4.83h-1.37v-1.9h1.37c.81,0,1.22,.33,1.22,.94s-.41,.96-1.22,.96Z"/><path class="cls-1" d="M220.74,49.76h-1.07l-3.07,7.23h1.55l.57-1.42h2.95l.57,1.42h1.57l-3.05-7.23Zm-1.57,4.61l1.02-2.56,1,2.56h-2.02Z"/><path class="cls-1" d="M229.95,49.75v4.83l-3.44-4.83h-1.5v7.24h1.45v-4.98l3.61,5.06h1.34v-7.32h-1.46Z"/><path class="cls-1" d="M233.42,49.75v7.24h1.49v-7.24h-1.49Zm3.17,3.46l2.82-3.46h-1.73l-2.87,3.51v.14l2.8,3.59h1.92l-2.95-3.78Z"/></g><polygon class="cls-1" points="187.5 51.02 187.5 52.64 190.32 52.64 190.32 53.91 187.5 53.91 187.5 55.7 190.9 55.7 190.9 56.99 186 56.99 186 49.75 190.9 49.75 190.9 51.02 187.5 51.02"/><polygon class="cls-1" points="157.7 51.02 157.7 52.64 160.52 52.64 160.52 53.91 157.7 53.91 157.7 55.7 161.11 55.7 161.11 56.99 156.21 56.99 156.21 49.75 161.11 49.75 161.11 51.02 157.7 51.02"/></g></svg>