<?xml version="1.0" encoding="UTF-8"?><svg id="logo_files" xmlns="http://www.w3.org/2000/svg" viewBox="0 0 500 500"><defs><style>.cls-1{fill:#fff;}.cls-2{fill:#c4cfda;}.cls-3{fill:#f05c40;}</style></defs><rect class="cls-2" x="247.13" y="256.19" width="119.08" height="17.33"/><g><path class="cls-1" d="M223.23,266.76c1.77-.82,2.88-2.36,2.88-4.28,0-3.15-2.29-4.78-5.68-4.78h-5.71v14.52h2.99v-4.96c.79,.11,1.61,.14,2.4,.14h.25c.35,.64,1.91,3.23,2.8,4.82h3.54c-.41-.65-3.07-4.86-3.46-5.46Zm-3.28-1.88c-.75,0-1.5-.02-2.24-.14v-4.49h2.54c1.61,0,2.76,.84,2.76,2.29s-1.02,2.33-3.06,2.33Z"/><g><path class="cls-1" d="M144.9,272.01l-1.12-2.81h-5.83l-1.12,2.81h-3.06l6.07-14.29h2.12l6.03,14.29h-3.1Zm-6.03-5.18h4l-1.99-5.07-2.01,5.07Z"/><path class="cls-1" d="M155.08,257.7c4.71,0,7.81,2.86,7.81,7.14s-3.1,7.17-7.81,7.17h-5.22v-14.31h5.22Zm-.18,11.76c3.24,0,5-1.85,5-4.58s-1.76-4.64-5-4.64h-2.1v9.22h2.1Z"/><path class="cls-1" d="M174.21,257.7h3.21l-6.05,14.31h-1.92l-6.07-14.31h3.33l2.81,7.1,1,3.01,.96-2.99,2.72-7.12Z"/><path class="cls-1" d="M179.28,272.01v-14.31h2.95v14.31h-2.95Z"/><path class="cls-1" d="M185.22,271.25l-.27-2.99c1.32,.96,3.08,1.54,4.75,1.54,1.92,0,3.01-.58,3.01-1.76,0-1.03-.85-1.54-3.17-2.08-2.99-.65-4.53-1.96-4.53-4.2,0-2.66,2.17-4.31,5.47-4.31,1.61,0,3.06,.34,3.97,.83l.27,2.79c-1.27-.78-2.59-1.16-4.24-1.16s-2.54,.51-2.54,1.52,.71,1.29,2.88,1.83c3.35,.85,4.76,2.03,4.76,4.49,0,2.81-2.37,4.51-5.71,4.51-1.72,0-3.3-.36-4.64-1Z"/><path class="cls-1" d="M197.27,264.86c0-4.15,3.15-7.41,7.55-7.41s7.46,3.17,7.46,7.41-3.13,7.39-7.46,7.39-7.55-3.24-7.55-7.39Zm12.03,0c0-2.77-1.92-4.76-4.49-4.76s-4.58,2.01-4.58,4.76,1.94,4.73,4.58,4.73,4.49-1.96,4.49-4.73Z"/><path class="cls-1" d="M228.57,271.25l-.27-2.99c1.32,.96,3.08,1.54,4.75,1.54,1.92,0,3.01-.58,3.01-1.76,0-1.03-.85-1.54-3.17-2.08-2.99-.65-4.53-1.96-4.53-4.2,0-2.66,2.17-4.31,5.47-4.31,1.61,0,3.06,.34,3.97,.83l.27,2.79c-1.27-.78-2.59-1.16-4.24-1.16s-2.54,.51-2.54,1.52,.71,1.29,2.88,1.83c3.35,.85,4.76,2.03,4.76,4.49,0,2.81-2.37,4.51-5.71,4.51-1.72,0-3.3-.36-4.64-1Z"/></g></g><g><g><path class="cls-1" d="M255.31,261.23v7.24h1.49v-7.24h-1.49Z"/><path class="cls-1" d="M263.76,261.23v4.83l-3.43-4.83h-1.5v7.24h1.44v-4.98l3.61,5.06h1.35v-7.32h-1.46Z"/><path class="cls-1" d="M271.89,261.23l-1.38,3.6-.49,1.52-.51-1.52-1.42-3.59h-1.68l3.07,7.24h.97l3.06-7.24h-1.63Z"/><path class="cls-1" d="M284.03,264.04c-1.09-.27-1.46-.44-1.46-.92,0-.51,.49-.77,1.29-.77s1.5,.19,2.15,.59l-.14-1.41c-.46-.25-1.19-.42-2.01-.42-1.67,0-2.77,.84-2.77,2.18,0,1.13,.78,1.79,2.3,2.12,1.17,.27,1.6,.53,1.6,1.05,0,.6-.55,.89-1.52,.89-.85,0-1.74-.29-2.41-.78l.14,1.51c.68,.33,1.48,.51,2.35,.51,1.7,0,2.89-.86,2.89-2.28,0-1.24-.71-1.84-2.41-2.27Z"/><path class="cls-1" d="M287.23,261.23l-.09,1.32h2.43v5.92h1.52v-5.92h2.26l.09-1.32h-6.2Z"/><path class="cls-1" d="M302.4,261.23h-1.6l-2.16,4.63-2.14-4.63h-1.71l-.18,7.24h1.45l.08-5,1.94,4.23h.98l1.91-4.05,.14,4.83h1.46l-.17-7.24Z"/><path class="cls-1" d="M316.12,261.23v4.83l-3.44-4.83h-1.5v7.24h1.45v-4.98l3.61,5.06h1.34v-7.32h-1.46Z"/><path class="cls-1" d="M318.96,261.23l-.09,1.32h2.43v5.92h1.51v-5.92h2.26l.09-1.32h-6.2Z"/><path class="cls-1" d="M333.29,264.6c.52-.29,.8-.81,.8-1.5,0-1.16-.88-1.86-2.36-1.86h-2.89v7.24h2.68c1.99,0,2.89-.67,2.89-2.11,0-.87-.43-1.49-1.12-1.76Zm-2.96-2.16h1.15c.75,0,1.13,.3,1.13,.89s-.38,.89-1.13,.89h-1.15v-1.79Zm1.37,4.83h-1.37v-1.9h1.37c.81,0,1.22,.33,1.22,.94s-.41,.96-1.22,.96Z"/><path class="cls-1" d="M339.24,261.24h-1.07l-3.07,7.23h1.55l.57-1.42h2.95l.57,1.42h1.57l-3.05-7.23Zm-1.57,4.61l1.02-2.56,1,2.56h-2.02Z"/><path class="cls-1" d="M348.45,261.23v4.83l-3.44-4.83h-1.5v7.24h1.45v-4.98l3.61,5.06h1.34v-7.32h-1.46Z"/><path class="cls-1" d="M351.92,261.23v7.24h1.49v-7.24h-1.49Zm3.17,3.46l2.82-3.46h-1.73l-2.87,3.51v.14l2.8,3.59h1.92l-2.95-3.78Z"/></g><polygon class="cls-1" points="306 262.51 306 264.12 308.82 264.12 308.82 265.39 306 265.39 306 267.19 309.4 267.19 309.4 268.47 304.5 268.47 304.5 261.23 309.4 261.23 309.4 262.51 306 262.51"/><polygon class="cls-1" points="276.2 262.51 276.2 264.12 279.02 264.12 279.02 265.39 276.2 265.39 276.2 267.19 279.6 267.19 279.6 268.47 274.71 268.47 274.71 261.23 279.6 261.23 279.6 262.51 276.2 262.51"/></g><g><g><polygon class="cls-3" points="174.61 244.46 173.18 248.04 178.22 248.04 176.79 244.46 174.61 244.46"/><polygon class="cls-1" points="186.97 249.5 182.04 249.5 175.68 233.3 169.29 249.5 164.43 249.5 173.43 226.87 178.04 226.87 186.97 249.5"/></g><g><path class="cls-1" d="M321.76,226.85h4.6l-7.64,22.68h-3.57l-5.63-16.67-5.48,16.67h-3.54l-7.68-22.68h4.95l4.63,15.81,5-15.81h4.33l5.28,15.71,4.74-15.71Z"/><g><path class="cls-1" d="M245.22,234.33c0-4.91-3.57-7.45-8.86-7.45h-8.9v22.63h4.66v-7.73c1.24,.18,2.51,.21,3.74,.21h.39c.55,1,2.98,5.04,4.37,7.52h5.51c-.64-1.02-4.79-7.57-5.4-8.51,2.75-1.28,4.48-3.68,4.48-6.67Zm-9.61,3.74c-1.16,0-2.33-.03-3.49-.21v-6.99h3.95c2.51,0,4.31,1.31,4.31,3.57s-1.59,3.64-4.77,3.64Z"/><polygon class="cls-1" points="162.67 226.87 157.94 242.55 152.54 226.87 148.54 226.87 143.35 242.66 138.73 226.87 133.79 226.87 141.45 249.51 144.98 249.51 150.45 233.16 156.07 249.51 159.64 249.51 167.26 226.87 162.67 226.87"/><polygon class="cls-1" points="192.51 249.51 197.24 249.51 197.24 231 204.3 231 206.23 226.87 185.2 226.87 183.28 231 192.51 231 192.51 249.51"/><polygon class="cls-1" points="260.69 249.51 260.69 231 267.76 231 269.68 226.87 248.65 226.87 246.73 231 255.96 231 255.96 249.51 260.69 249.51"/><path class="cls-1" d="M281.02,226.48c-6.95,0-11.94,5.15-11.94,11.72s4.98,11.69,11.94,11.69,11.8-5.01,11.8-11.69-4.94-11.72-11.8-11.72Zm0,19.21c-4.17,0-7.24-3.14-7.24-7.49s3.07-7.52,7.24-7.52,7.1,3.14,7.1,7.52-3.03,7.49-7.1,7.49Z"/><path class="cls-1" d="M360.81,241c2.75-1.28,4.48-3.68,4.48-6.67,0-4.91-3.57-7.45-8.86-7.45h-8.9v22.63h4.66v-7.73c1.24,.18,2.51,.21,3.74,.21h.39c.55,1,2.99,5.04,4.37,7.52h5.52c-.65-1.02-4.79-7.57-5.4-8.51Zm-5.12-2.93c-1.17,0-2.33-.03-3.5-.21v-6.99h3.95c2.51,0,4.31,1.31,4.31,3.57s-1.59,3.64-4.76,3.64Z"/><polygon class="cls-1" points="224.5 230.86 224.5 226.87 209.19 226.87 209.19 249.51 224.5 249.51 224.5 245.48 213.85 245.48 213.85 239.87 217.67 239.87 220.54 235.91 213.85 235.91 213.85 230.86 224.5 230.86"/><polygon class="cls-1" points="329.26 249.51 344.57 249.51 344.57 245.48 333.92 245.48 333.92 239.87 337.74 239.87 340.61 235.91 333.92 235.91 333.92 230.86 344.57 230.86 344.57 226.87 329.26 226.87 329.26 249.51"/></g></g></g><path class="cls-1" d="M331.49,262.44h-1.16v1.79h1.16c.74,0,1.13-.31,1.13-.89s-.39-.9-1.13-.9Zm.21,2.93h-1.37v1.9h1.37c.81,0,1.22-.34,1.22-.97s-.41-.93-1.22-.93Zm6.98-2.08l-1.01,2.56h2.02l-1.01-2.56Zm0,0l-1.01,2.56h2.02l-1.01-2.56Zm-6.98,2.08h-1.37v1.9h1.37c.81,0,1.22-.34,1.22-.97s-.41-.93-1.22-.93Zm-.21-2.93h-1.16v1.79h1.16c.74,0,1.13-.31,1.13-.89s-.39-.9-1.13-.9Zm0,0h-1.16v1.79h1.16c.74,0,1.13-.31,1.13-.89s-.39-.9-1.13-.9Zm.21,2.93h-1.37v1.9h1.37c.81,0,1.22-.34,1.22-.97s-.41-.93-1.22-.93Zm6.98-2.08l-1.01,2.56h2.02l-1.01-2.56Zm0,0l-1.01,2.56h2.02l-1.01-2.56Zm-6.98,2.08h-1.37v1.9h1.37c.81,0,1.22-.34,1.22-.97s-.41-.93-1.22-.93Zm.92-2.03c0-.59-.39-.9-1.13-.9h-1.16v1.79h1.16c.74,0,1.13-.31,1.13-.89Zm-85.49-7.15v17.33h119.08v-17.33h-119.08Zm9.67,12.28h-1.49v-7.24h1.49v7.24Zm8.42,.08h-1.35l-3.6-5.06v4.98h-1.45v-7.24h1.51l3.43,4.83v-4.83h1.46v7.32Zm5.24-.08h-.97l-3.08-7.24h1.69l1.42,3.6,.51,1.52,.49-1.51,1.37-3.61h1.63l-3.06,7.24Zm9.14-5.96h-3.4v1.62h2.82v1.26h-2.82v1.8h3.4v1.28h-4.89v-7.24h4.89v1.28Zm3.94,6.09c-.87,0-1.67-.18-2.35-.51l-.13-1.51c.66,.48,1.56,.78,2.41,.78,.97,0,1.52-.3,1.52-.9,0-.51-.43-.78-1.6-1.05-1.52-.33-2.3-.99-2.3-2.12,0-1.35,1.1-2.18,2.77-2.18,.81,0,1.55,.17,2.01,.42l.14,1.41c-.65-.4-1.31-.59-2.15-.59s-1.29,.26-1.29,.77,.37,.66,1.46,.93c1.7,.43,2.41,1.03,2.41,2.27,0,1.42-1.2,2.28-2.9,2.28Zm9.8-6.04h-2.26v5.91h-1.51v-5.91h-2.43l.09-1.33h6.2l-.09,1.33Zm7.77,5.91l-.13-4.82-1.91,4.05h-.98l-1.95-4.23-.08,5h-1.44l.18-7.24h1.7l2.14,4.64,2.16-4.64h1.6l.17,7.24h-1.46Zm8.29-5.96h-3.4v1.62h2.82v1.26h-2.82v1.8h3.4v1.28h-4.9v-7.24h4.9v1.28Zm8.18,6.04h-1.35l-3.6-5.06v4.98h-1.45v-7.24h1.5l3.44,4.83v-4.83h1.46v7.32Zm7.49-5.99h-2.26v5.91h-1.51v-5.91h-2.44l.1-1.33h6.2l-.09,1.33Zm6.45,5.91h-2.68v-7.24h2.89c1.48,0,2.36,.71,2.36,1.87,0,.69-.28,1.21-.8,1.5,.69,.27,1.12,.89,1.12,1.76,0,1.45-.9,2.11-2.89,2.11Zm9.2,0l-.57-1.42h-2.94l-.57,1.42h-1.55l3.07-7.23h1.08l3.05,7.23h-1.57Zm9.18,.08h-1.34l-3.6-5.06v4.98h-1.45v-7.24h1.5l3.44,4.83v-4.83h1.45v7.32Zm6.22-.08l-2.71-3.47v3.47h-1.49v-7.24h1.49v3.41l2.78-3.41h1.72l-2.82,3.46,2.95,3.78h-1.92Zm-2.8-3.72v.13l.09,.12v-.36l-.09,.11Zm-15.65,1.1h2.02l-1.01-2.56-1.01,2.56Zm-5.97-.48h-1.37v1.9h1.37c.81,0,1.22-.34,1.22-.97s-.41-.93-1.22-.93Zm.92-2.03c0-.59-.39-.9-1.13-.9h-1.16v1.79h1.16c.74,0,1.13-.31,1.13-.89Zm-1.13-.9h-1.16v1.79h1.16c.74,0,1.13-.31,1.13-.89s-.39-.9-1.13-.9Zm.21,2.93h-1.37v1.9h1.37c.81,0,1.22-.34,1.22-.97s-.41-.93-1.22-.93Zm6.98-2.08l-1.01,2.56h2.02l-1.01-2.56Zm0,0l-1.01,2.56h2.02l-1.01-2.56Zm-6.98,2.08h-1.37v1.9h1.37c.81,0,1.22-.34,1.22-.97s-.41-.93-1.22-.93Zm-.21-2.93h-1.16v1.79h1.16c.74,0,1.13-.31,1.13-.89s-.39-.9-1.13-.9Zm0,0h-1.16v1.79h1.16c.74,0,1.13-.31,1.13-.89s-.39-.9-1.13-.9Zm.21,2.93h-1.37v1.9h1.37c.81,0,1.22-.34,1.22-.97s-.41-.93-1.22-.93Zm0,0h-1.37v1.9h1.37c.81,0,1.22-.34,1.22-.97s-.41-.93-1.22-.93Zm-.21-2.93h-1.16v1.79h1.16c.74,0,1.13-.31,1.13-.89s-.39-.9-1.13-.9Z"/><g><path class="cls-1" d="M223.23,266.76c1.77-.82,2.88-2.36,2.88-4.28,0-3.15-2.29-4.78-5.68-4.78h-5.71v14.52h2.99v-4.96c.79,.11,1.61,.14,2.4,.14h.25c.35,.64,1.91,3.23,2.8,4.82h3.54c-.41-.65-3.07-4.86-3.46-5.46Zm-3.28-1.88c-.75,0-1.5-.02-2.24-.14v-4.49h2.54c1.61,0,2.76,.84,2.76,2.29s-1.02,2.33-3.06,2.33Z"/><g><path class="cls-1" d="M144.9,272.01l-1.12-2.81h-5.83l-1.12,2.81h-3.06l6.07-14.29h2.12l6.03,14.29h-3.1Zm-6.03-5.18h4l-1.99-5.07-2.01,5.07Z"/><path class="cls-1" d="M155.08,257.7c4.71,0,7.81,2.86,7.81,7.14s-3.1,7.17-7.81,7.17h-5.22v-14.31h5.22Zm-.18,11.76c3.24,0,5-1.85,5-4.58s-1.76-4.64-5-4.64h-2.1v9.22h2.1Z"/><path class="cls-1" d="M174.21,257.7h3.21l-6.05,14.31h-1.92l-6.07-14.31h3.33l2.81,7.1,1,3.01,.96-2.99,2.72-7.12Z"/><path class="cls-1" d="M179.28,272.01v-14.31h2.95v14.31h-2.95Z"/><path class="cls-1" d="M185.22,271.25l-.27-2.99c1.32,.96,3.08,1.54,4.75,1.54,1.92,0,3.01-.58,3.01-1.76,0-1.03-.85-1.54-3.17-2.08-2.99-.65-4.53-1.96-4.53-4.2,0-2.66,2.17-4.31,5.47-4.31,1.61,0,3.06,.34,3.97,.83l.27,2.79c-1.27-.78-2.59-1.16-4.24-1.16s-2.54,.51-2.54,1.52,.71,1.29,2.88,1.83c3.35,.85,4.76,2.03,4.76,4.49,0,2.81-2.37,4.51-5.71,4.51-1.72,0-3.3-.36-4.64-1Z"/><path class="cls-1" d="M197.27,264.86c0-4.15,3.15-7.41,7.55-7.41s7.46,3.17,7.46,7.41-3.13,7.39-7.46,7.39-7.55-3.24-7.55-7.39Zm12.03,0c0-2.77-1.92-4.76-4.49-4.76s-4.58,2.01-4.58,4.76,1.94,4.73,4.58,4.73,4.49-1.96,4.49-4.73Z"/><path class="cls-1" d="M228.57,271.25l-.27-2.99c1.32,.96,3.08,1.54,4.75,1.54,1.92,0,3.01-.58,3.01-1.76,0-1.03-.85-1.54-3.17-2.08-2.99-.65-4.53-1.96-4.53-4.2,0-2.66,2.17-4.31,5.47-4.31,1.61,0,3.06,.34,3.97,.83l.27,2.79c-1.27-.78-2.59-1.16-4.24-1.16s-2.54,.51-2.54,1.52,.71,1.29,2.88,1.83c3.35,.85,4.76,2.03,4.76,4.49,0,2.81-2.37,4.51-5.71,4.51-1.72,0-3.3-.36-4.64-1Z"/></g></g><path class="cls-1" d="M353.32,264.75v.13l.09,.12v-.36l-.09,.11Zm0,0v.13l.09,.12v-.36l-.09,.11Z"/></svg>