<?xml version="1.0" encoding="UTF-8"?><svg id="logo_files" xmlns="http://www.w3.org/2000/svg" viewBox="0 0 262.62 75.77"><defs><style>.cls-1{fill:#fff;}.cls-2{fill:#c4cfda;}.cls-3{fill:#f05c40;}</style></defs><path class="cls-1" d="M215.71,49.4h-1.15v1.78h1.15c.75,0,1.13-.3,1.13-.89s-.38-.89-1.13-.89Zm.22,2.92h-1.37v1.9h1.37c.81,0,1.22-.34,1.22-.96s-.41-.94-1.22-.94Zm0,0h-1.37v1.9h1.37c.81,0,1.22-.34,1.22-.96s-.41-.94-1.22-.94Zm-.22-2.92h-1.15v1.78h1.15c.75,0,1.13-.3,1.13-.89s-.38-.89-1.13-.89Zm0,0h-1.15v1.78h1.15c.75,0,1.13-.3,1.13-.89s-.38-.89-1.13-.89Zm.22,2.92h-1.37v1.9h1.37c.81,0,1.22-.34,1.22-.96s-.41-.94-1.22-.94Zm6.98-2.07l-1.02,2.56h2.02l-1-2.56Zm0,0l-1.02,2.56h2.02l-1-2.56Zm-6.98,2.07h-1.37v1.9h1.37c.81,0,1.22-.34,1.22-.96s-.41-.94-1.22-.94Zm-.22-2.92h-1.15v1.78h1.15c.75,0,1.13-.3,1.13-.89s-.38-.89-1.13-.89Zm0,0h-1.15v1.78h1.15c.75,0,1.13-.3,1.13-.89s-.38-.89-1.13-.89Zm.22,2.92h-1.37v1.9h1.37c.81,0,1.22-.34,1.22-.96s-.41-.94-1.22-.94Zm6.98-2.07l-1.02,2.56h2.02l-1-2.56Zm0,0l-1.02,2.56h2.02l-1-2.56Zm-6.98,2.07h-1.37v1.9h1.37c.81,0,1.22-.34,1.22-.96s-.41-.94-1.22-.94Zm.91-2.03c0-.59-.38-.89-1.13-.89h-1.15v1.78h1.15c.75,0,1.13-.3,1.13-.89Zm-85.48-7.14v17.32h119.08v-17.32h-119.08Zm9.67,12.28h-1.5v-7.24h1.5v7.24Zm8.41,.08h-1.34l-3.61-5.06v4.98h-1.44v-7.24h1.5l3.43,4.83v-4.83h1.46v7.32Zm5.24-.08h-.97l-3.07-7.24h1.68l1.43,3.59,.51,1.53,.48-1.52,1.38-3.6h1.63l-3.07,7.24Zm9.15-5.96h-3.4v1.61h2.82v1.27h-2.82v1.79h3.4v1.29h-4.9v-7.24h4.9v1.28Zm3.94,6.09c-.87,0-1.67-.18-2.35-.51l-.14-1.52c.67,.49,1.56,.78,2.41,.78,.97,0,1.53-.29,1.53-.89,0-.52-.43-.78-1.61-1.05-1.51-.33-2.29-1-2.29-2.12,0-1.35,1.09-2.19,2.77-2.19,.81,0,1.54,.17,2,.42l.14,1.42c-.64-.4-1.31-.59-2.14-.59s-1.29,.26-1.29,.77c0,.48,.36,.65,1.45,.92,1.7,.43,2.41,1.03,2.41,2.27,0,1.43-1.19,2.29-2.89,2.29Zm9.8-6.05h-2.26v5.92h-1.52v-5.92h-2.43l.09-1.32h6.21l-.09,1.32Zm7.77,5.92l-.14-4.83-1.91,4.05h-.98l-1.94-4.22-.08,5h-1.45l.18-7.24h1.71l2.13,4.63,2.16-4.63h1.61l.16,7.24h-1.45Zm8.28-5.96h-3.4v1.61h2.82v1.27h-2.82v1.79h3.4v1.29h-4.89v-7.24h4.89v1.28Zm8.18,6.04h-1.34l-3.61-5.06v4.98h-1.44v-7.24h1.5l3.44,4.83v-4.83h1.45v7.32Zm7.49-6h-2.26v5.92h-1.51v-5.92h-2.43l.09-1.32h6.2l-.09,1.32Zm6.45,5.92h-2.67v-7.24h2.89c1.48,0,2.36,.7,2.36,1.86,0,.69-.28,1.21-.8,1.5,.69,.28,1.12,.9,1.12,1.77,0,1.44-.91,2.11-2.9,2.11Zm9.2,0l-.56-1.42h-2.95l-.56,1.42h-1.55l3.07-7.23h1.07l3.05,7.23h-1.57Zm9.19,.08h-1.34l-3.61-5.06v4.98h-1.45v-7.24h1.51l3.43,4.83v-4.83h1.46v7.32Zm6.22-.08l-2.72-3.48v3.48h-1.49v-7.24h1.49v3.4l2.78-3.4h1.73l-2.82,3.46,2.95,3.78h-1.92Zm-18.46-2.62h2.02l-1-2.56-1.02,2.56Zm-5.96-.49h-1.37v1.9h1.37c.81,0,1.22-.34,1.22-.96s-.41-.94-1.22-.94Zm.91-2.03c0-.59-.38-.89-1.13-.89h-1.15v1.78h1.15c.75,0,1.13-.3,1.13-.89Zm-1.13-.89h-1.15v1.78h1.15c.75,0,1.13-.3,1.13-.89s-.38-.89-1.13-.89Zm.22,2.92h-1.37v1.9h1.37c.81,0,1.22-.34,1.22-.96s-.41-.94-1.22-.94Zm6.98-2.07l-1.02,2.56h2.02l-1-2.56Zm0,0l-1.02,2.56h2.02l-1-2.56Zm-6.98,2.07h-1.37v1.9h1.37c.81,0,1.22-.34,1.22-.96s-.41-.94-1.22-.94Zm-.22-2.92h-1.15v1.78h1.15c.75,0,1.13-.3,1.13-.89s-.38-.89-1.13-.89Zm0,0h-1.15v1.78h1.15c.75,0,1.13-.3,1.13-.89s-.38-.89-1.13-.89Zm.22,2.92h-1.37v1.9h1.37c.81,0,1.22-.34,1.22-.96s-.41-.94-1.22-.94Zm6.98-2.07l-1.02,2.56h2.02l-1-2.56Zm0,0l-1.02,2.56h2.02l-1-2.56Zm-6.98,2.07h-1.37v1.9h1.37c.81,0,1.22-.34,1.22-.96s-.41-.94-1.22-.94Zm-.22-2.92h-1.15v1.78h1.15c.75,0,1.13-.3,1.13-.89s-.38-.89-1.13-.89Z"/><g><path class="cls-2" d="M104.73,55.28c1.77-.82,2.88-2.36,2.88-4.28,0-3.15-2.29-4.78-5.68-4.78h-5.71v14.52h2.99v-4.96c.79,.11,1.61,.14,2.4,.14h.25c.35,.64,1.91,3.23,2.8,4.82h3.54c-.41-.65-3.07-4.86-3.46-5.46Zm-3.28-1.88c-.75,0-1.5-.02-2.24-.14v-4.49h2.54c1.61,0,2.76,.84,2.76,2.29s-1.02,2.33-3.06,2.33Z"/><g><path class="cls-2" d="M26.4,60.52l-1.12-2.81h-5.83l-1.12,2.81h-3.06l6.07-14.29h2.12l6.03,14.29h-3.1Zm-6.03-5.18h4l-1.99-5.07-2.01,5.07Z"/><path class="cls-2" d="M36.58,46.22c4.71,0,7.81,2.86,7.81,7.14s-3.1,7.17-7.81,7.17h-5.22v-14.31h5.22Zm-.18,11.76c3.24,0,5-1.85,5-4.58s-1.76-4.64-5-4.64h-2.1v9.22h2.1Z"/><path class="cls-2" d="M55.72,46.22h3.21l-6.05,14.31h-1.92l-6.07-14.31h3.33l2.81,7.1,1,3.01,.96-2.99,2.72-7.12Z"/><path class="cls-2" d="M60.78,60.52v-14.31h2.95v14.31h-2.95Z"/><path class="cls-2" d="M66.72,59.77l-.27-2.99c1.32,.96,3.08,1.54,4.75,1.54,1.92,0,3.01-.58,3.01-1.76,0-1.03-.85-1.54-3.17-2.08-2.99-.65-4.53-1.96-4.53-4.2,0-2.66,2.17-4.31,5.47-4.31,1.61,0,3.06,.34,3.97,.83l.27,2.79c-1.27-.78-2.59-1.16-4.24-1.16s-2.54,.51-2.54,1.52,.71,1.29,2.88,1.83c3.35,.85,4.76,2.03,4.76,4.49,0,2.81-2.37,4.51-5.71,4.51-1.72,0-3.3-.36-4.64-1Z"/><path class="cls-2" d="M78.78,53.38c0-4.15,3.15-7.41,7.55-7.41s7.46,3.17,7.46,7.41-3.13,7.39-7.46,7.39-7.55-3.24-7.55-7.39Zm12.03,0c0-2.77-1.92-4.76-4.49-4.76s-4.58,2.01-4.58,4.76,1.94,4.73,4.58,4.73,4.49-1.96,4.49-4.73Z"/><path class="cls-2" d="M110.07,59.77l-.27-2.99c1.32,.96,3.08,1.54,4.75,1.54,1.92,0,3.01-.58,3.01-1.76,0-1.03-.85-1.54-3.17-2.08-2.99-.65-4.53-1.96-4.53-4.2,0-2.66,2.17-4.31,5.47-4.31,1.61,0,3.06,.34,3.97,.83l.27,2.79c-1.27-.78-2.59-1.16-4.24-1.16s-2.54,.51-2.54,1.52,.71,1.29,2.88,1.83c3.35,.85,4.76,2.03,4.76,4.49,0,2.81-2.37,4.51-5.71,4.51-1.72,0-3.3-.36-4.64-1Z"/></g></g><g><g><polygon class="cls-3" points="56.11 32.97 54.68 36.56 59.72 36.56 58.29 32.97 56.11 32.97"/><polygon class="cls-1" points="68.47 38.02 63.54 38.02 57.18 21.81 50.79 38.02 45.93 38.02 54.93 15.39 59.55 15.39 68.47 38.02"/></g><g><path class="cls-1" d="M203.26,15.37h4.6l-7.64,22.68h-3.57l-5.63-16.67-5.48,16.67h-3.54l-7.68-22.68h4.95l4.63,15.81,5-15.81h4.33l5.28,15.71,4.74-15.71Z"/><g><path class="cls-1" d="M126.73,22.84c0-4.91-3.57-7.45-8.86-7.45h-8.9v22.63h4.66v-7.73c1.24,.18,2.51,.21,3.74,.21h.39c.55,1,2.98,5.04,4.37,7.52h5.51c-.64-1.02-4.79-7.57-5.4-8.51,2.75-1.28,4.48-3.68,4.48-6.67Zm-9.61,3.74c-1.16,0-2.33-.03-3.49-.21v-6.99h3.95c2.51,0,4.31,1.31,4.31,3.57s-1.59,3.64-4.77,3.64Z"/><polygon class="cls-1" points="44.17 15.39 39.44 31.07 34.04 15.39 30.05 15.39 24.85 31.17 20.23 15.39 15.29 15.39 22.95 38.02 26.48 38.02 31.95 21.67 37.57 38.02 41.14 38.02 48.76 15.39 44.17 15.39"/><polygon class="cls-1" points="74.01 38.02 78.75 38.02 78.75 19.52 85.81 19.52 87.73 15.39 66.7 15.39 64.78 19.52 74.01 19.52 74.01 38.02"/><polygon class="cls-1" points="142.2 38.02 142.2 19.52 149.26 19.52 151.18 15.39 130.16 15.39 128.23 19.52 137.47 19.52 137.47 38.02 142.2 38.02"/><path class="cls-1" d="M162.53,15c-6.95,0-11.94,5.15-11.94,11.72s4.98,11.69,11.94,11.69,11.8-5.01,11.8-11.69-4.94-11.72-11.8-11.72Zm0,19.21c-4.17,0-7.24-3.14-7.24-7.49s3.07-7.52,7.24-7.52,7.1,3.14,7.1,7.52-3.03,7.49-7.1,7.49Z"/><path class="cls-1" d="M242.31,29.51c2.75-1.28,4.48-3.68,4.48-6.67,0-4.91-3.57-7.45-8.86-7.45h-8.9v22.63h4.66v-7.73c1.24,.18,2.51,.21,3.74,.21h.39c.55,1,2.99,5.04,4.37,7.52h5.52c-.65-1.02-4.79-7.57-5.4-8.51Zm-5.12-2.93c-1.17,0-2.33-.03-3.5-.21v-6.99h3.95c2.51,0,4.31,1.31,4.31,3.57s-1.59,3.64-4.76,3.64Z"/><polygon class="cls-1" points="106 19.38 106 15.39 90.69 15.39 90.69 38.02 106 38.02 106 34 95.35 34 95.35 28.38 99.17 28.38 102.04 24.43 95.35 24.43 95.35 19.38 106 19.38"/><polygon class="cls-1" points="210.76 38.02 226.07 38.02 226.07 34 215.42 34 215.42 28.38 219.24 28.38 222.11 24.43 215.42 24.43 215.42 19.38 226.07 19.38 226.07 15.39 210.76 15.39 210.76 38.02"/></g></g></g><path class="cls-1" d="M215.71,49.4h-1.15v1.78h1.15c.75,0,1.13-.3,1.13-.89s-.38-.89-1.13-.89Zm.22,2.92h-1.37v1.9h1.37c.81,0,1.22-.34,1.22-.96s-.41-.94-1.22-.94Zm0,0h-1.37v1.9h1.37c.81,0,1.22-.34,1.22-.96s-.41-.94-1.22-.94Zm-.22-2.92h-1.15v1.78h1.15c.75,0,1.13-.3,1.13-.89s-.38-.89-1.13-.89Zm0,0h-1.15v1.78h1.15c.75,0,1.13-.3,1.13-.89s-.38-.89-1.13-.89Zm.22,2.92h-1.37v1.9h1.37c.81,0,1.22-.34,1.22-.96s-.41-.94-1.22-.94Zm6.98-2.07l-1.02,2.56h2.02l-1-2.56Zm0,0l-1.02,2.56h2.02l-1-2.56Zm-6.98,2.07h-1.37v1.9h1.37c.81,0,1.22-.34,1.22-.96s-.41-.94-1.22-.94Zm-.22-2.92h-1.15v1.78h1.15c.75,0,1.13-.3,1.13-.89s-.38-.89-1.13-.89Zm0,0h-1.15v1.78h1.15c.75,0,1.13-.3,1.13-.89s-.38-.89-1.13-.89Zm.22,2.92h-1.37v1.9h1.37c.81,0,1.22-.34,1.22-.96s-.41-.94-1.22-.94Zm6.98-2.07l-1.02,2.56h2.02l-1-2.56Zm0,0l-1.02,2.56h2.02l-1-2.56Zm-6.98,2.07h-1.37v1.9h1.37c.81,0,1.22-.34,1.22-.96s-.41-.94-1.22-.94Zm.91-2.03c0-.59-.38-.89-1.13-.89h-1.15v1.78h1.15c.75,0,1.13-.3,1.13-.89Zm-85.48-7.14v17.32h119.08v-17.32h-119.08Zm9.67,12.28h-1.5v-7.24h1.5v7.24Zm8.41,.08h-1.34l-3.61-5.06v4.98h-1.44v-7.24h1.5l3.43,4.83v-4.83h1.46v7.32Zm5.24-.08h-.97l-3.07-7.24h1.68l1.43,3.59,.51,1.53,.48-1.52,1.38-3.6h1.63l-3.07,7.24Zm9.15-5.96h-3.4v1.61h2.82v1.27h-2.82v1.79h3.4v1.29h-4.9v-7.24h4.9v1.28Zm3.94,6.09c-.87,0-1.67-.18-2.35-.51l-.14-1.52c.67,.49,1.56,.78,2.41,.78,.97,0,1.53-.29,1.53-.89,0-.52-.43-.78-1.61-1.05-1.51-.33-2.29-1-2.29-2.12,0-1.35,1.09-2.19,2.77-2.19,.81,0,1.54,.17,2,.42l.14,1.42c-.64-.4-1.31-.59-2.14-.59s-1.29,.26-1.29,.77c0,.48,.36,.65,1.45,.92,1.7,.43,2.41,1.03,2.41,2.27,0,1.43-1.19,2.29-2.89,2.29Zm9.8-6.05h-2.26v5.92h-1.52v-5.92h-2.43l.09-1.32h6.21l-.09,1.32Zm7.77,5.92l-.14-4.83-1.91,4.05h-.98l-1.94-4.22-.08,5h-1.45l.18-7.24h1.71l2.13,4.63,2.16-4.63h1.61l.16,7.24h-1.45Zm8.28-5.96h-3.4v1.61h2.82v1.27h-2.82v1.79h3.4v1.29h-4.89v-7.24h4.89v1.28Zm8.18,6.04h-1.34l-3.61-5.06v4.98h-1.44v-7.24h1.5l3.44,4.83v-4.83h1.45v7.32Zm7.49-6h-2.26v5.92h-1.51v-5.92h-2.43l.09-1.32h6.2l-.09,1.32Zm6.45,5.92h-2.67v-7.24h2.89c1.48,0,2.36,.7,2.36,1.86,0,.69-.28,1.21-.8,1.5,.69,.28,1.12,.9,1.12,1.77,0,1.44-.91,2.11-2.9,2.11Zm9.2,0l-.56-1.42h-2.95l-.56,1.42h-1.55l3.07-7.23h1.07l3.05,7.23h-1.57Zm9.19,.08h-1.34l-3.61-5.06v4.98h-1.45v-7.24h1.51l3.43,4.83v-4.83h1.46v7.32Zm6.22-.08l-2.72-3.48v3.48h-1.49v-7.24h1.49v3.4l2.78-3.4h1.73l-2.82,3.46,2.95,3.78h-1.92Zm-18.46-2.62h2.02l-1-2.56-1.02,2.56Zm-5.96-.49h-1.37v1.9h1.37c.81,0,1.22-.34,1.22-.96s-.41-.94-1.22-.94Zm.91-2.03c0-.59-.38-.89-1.13-.89h-1.15v1.78h1.15c.75,0,1.13-.3,1.13-.89Zm-1.13-.89h-1.15v1.78h1.15c.75,0,1.13-.3,1.13-.89s-.38-.89-1.13-.89Zm.22,2.92h-1.37v1.9h1.37c.81,0,1.22-.34,1.22-.96s-.41-.94-1.22-.94Zm6.98-2.07l-1.02,2.56h2.02l-1-2.56Zm0,0l-1.02,2.56h2.02l-1-2.56Zm-6.98,2.07h-1.37v1.9h1.37c.81,0,1.22-.34,1.22-.96s-.41-.94-1.22-.94Zm-.22-2.92h-1.15v1.78h1.15c.75,0,1.13-.3,1.13-.89s-.38-.89-1.13-.89Zm0,0h-1.15v1.78h1.15c.75,0,1.13-.3,1.13-.89s-.38-.89-1.13-.89Zm.22,2.92h-1.37v1.9h1.37c.81,0,1.22-.34,1.22-.96s-.41-.94-1.22-.94Zm6.98-2.07l-1.02,2.56h2.02l-1-2.56Zm0,0l-1.02,2.56h2.02l-1-2.56Zm-6.98,2.07h-1.37v1.9h1.37c.81,0,1.22-.34,1.22-.96s-.41-.94-1.22-.94Zm-.22-2.92h-1.15v1.78h1.15c.75,0,1.13-.3,1.13-.89s-.38-.89-1.13-.89Z"/><g><path class="cls-1" d="M104.73,55.28c1.77-.82,2.88-2.36,2.88-4.28,0-3.15-2.29-4.78-5.68-4.78h-5.71v14.52h2.99v-4.96c.79,.11,1.61,.14,2.4,.14h.25c.35,.64,1.91,3.23,2.8,4.82h3.54c-.41-.65-3.07-4.86-3.46-5.46Zm-3.28-1.88c-.75,0-1.5-.02-2.24-.14v-4.49h2.54c1.61,0,2.76,.84,2.76,2.29s-1.02,2.33-3.06,2.33Z"/><g><path class="cls-1" d="M26.4,60.52l-1.12-2.81h-5.83l-1.12,2.81h-3.06l6.07-14.29h2.12l6.03,14.29h-3.1Zm-6.03-5.18h4l-1.99-5.07-2.01,5.07Z"/><path class="cls-1" d="M36.58,46.22c4.71,0,7.81,2.86,7.81,7.14s-3.1,7.17-7.81,7.17h-5.22v-14.31h5.22Zm-.18,11.76c3.24,0,5-1.85,5-4.58s-1.76-4.64-5-4.64h-2.1v9.22h2.1Z"/><path class="cls-1" d="M55.72,46.22h3.21l-6.05,14.31h-1.92l-6.07-14.31h3.33l2.81,7.1,1,3.01,.96-2.99,2.72-7.12Z"/><path class="cls-1" d="M60.78,60.52v-14.31h2.95v14.31h-2.95Z"/><path class="cls-1" d="M66.72,59.77l-.27-2.99c1.32,.96,3.08,1.54,4.75,1.54,1.92,0,3.01-.58,3.01-1.76,0-1.03-.85-1.54-3.17-2.08-2.99-.65-4.53-1.96-4.53-4.2,0-2.66,2.17-4.31,5.47-4.31,1.61,0,3.06,.34,3.97,.83l.27,2.79c-1.27-.78-2.59-1.16-4.24-1.16s-2.54,.51-2.54,1.52,.71,1.29,2.88,1.83c3.35,.85,4.76,2.03,4.76,4.49,0,2.81-2.37,4.51-5.71,4.51-1.72,0-3.3-.36-4.64-1Z"/><path class="cls-1" d="M78.78,53.38c0-4.15,3.15-7.41,7.55-7.41s7.46,3.17,7.46,7.41-3.13,7.39-7.46,7.39-7.55-3.24-7.55-7.39Zm12.03,0c0-2.77-1.92-4.76-4.49-4.76s-4.58,2.01-4.58,4.76,1.94,4.73,4.58,4.73,4.49-1.96,4.49-4.73Z"/><path class="cls-1" d="M110.07,59.77l-.27-2.99c1.32,.96,3.08,1.54,4.75,1.54,1.92,0,3.01-.58,3.01-1.76,0-1.03-.85-1.54-3.17-2.08-2.99-.65-4.53-1.96-4.53-4.2,0-2.66,2.17-4.31,5.47-4.31,1.61,0,3.06,.34,3.97,.83l.27,2.79c-1.27-.78-2.59-1.16-4.24-1.16s-2.54,.51-2.54,1.52,.71,1.29,2.88,1.83c3.35,.85,4.76,2.03,4.76,4.49,0,2.81-2.37,4.51-5.71,4.51-1.72,0-3.3-.36-4.64-1Z"/></g></g></svg>